<?xml version="1.0" encoding="utf-8"?>
<!-- Generator: Adobe Illustrator 23.0.3, SVG Export Plug-In . SVG Version: 6.00 Build 0)  -->
<svg version="1.1" id="Layer_1" xmlns="http://www.w3.org/2000/svg" xmlns:xlink="http://www.w3.org/1999/xlink" x="0px" y="0px"
	 viewBox="0 0 32 32" style="enable-background:new 0 0 32 32;" xml:space="preserve">
<g>
	<g>
		<g>
			<path d="M12.375,14c-3.859375,0-7-3.140625-7-7s3.140625-7,7-7s7,3.140625,7,7S16.234375,14,12.375,14z M12.375,2
				c-2.7568359,0-5,2.2431641-5,5s2.2431641,5,5,5s5-2.2431641,5-5S15.1318359,2,12.375,2z"/>
		</g>
		<g>
			<path d="M23.375,32c-0.5527344,0-1-0.4472656-1-1v-6.1152344c0-3.828125-3.1142578-6.9423828-6.9423828-6.9423828H9.3173828
				c-3.828125,0-6.9423828,3.1142578-6.9423828,6.9423828V31c0,0.5527344-0.4472656,1-1,1s-1-0.4472656-1-1v-6.1152344
				c0-4.9306641,4.0117188-8.9423828,8.9423828-8.9423828h6.1152344c4.9306641,0,8.9423828,4.0117188,8.9423828,8.9423828V31
				C24.375,31.5527344,23.9277344,32,23.375,32z"/>
		</g>
	</g>
	<g>
		<g>
			<path d="M30.625,12.9140625H20.2539063c-0.5527344,0-1-0.4472656-1-1s0.4472656-1,1-1H30.625c0.5527344,0,1,0.4472656,1,1
				S31.1777344,12.9140625,30.625,12.9140625z"/>
		</g>
		<g>
			<path d="M30.625,20.2929688h-5.25c-0.5527344,0-1-0.4472656-1-1s0.4472656-1,1-1h5.25c0.5527344,0,1,0.4472656,1,1
				S31.1777344,20.2929688,30.625,20.2929688z"/>
		</g>
		<g>
			<path d="M30.625,27.671875h-3.9140625c-0.5527344,0-1-0.4472656-1-1s0.4472656-1,1-1H30.625c0.5527344,0,1,0.4472656,1,1
				S31.1777344,27.671875,30.625,27.671875z"/>
		</g>
	</g>
</g>
</svg>
