<?xml version="1.0" standalone="no"?>
<!DOCTYPE svg PUBLIC "-//W3C//DTD SVG 20010904//EN"
 "http://www.w3.org/TR/2001/REC-SVG-20010904/DTD/svg10.dtd">
<svg version="1.0" xmlns="http://www.w3.org/2000/svg"
 width="1000.000000pt" height="1000.000000pt" viewBox="0 0 1000.000000 1000.000000"
 preserveAspectRatio="xMidYMid meet">
<metadata>
Created by potrace 1.11, written by Peter Selinger 2001-2013
</metadata>
<g transform="translate(0.000000,1000.000000) scale(0.100000,-0.100000)"
fill="#000000" stroke="none">
<path d="M4625 9989 c-1545 -120 -2938 -938 -3790 -2224 -680 -1026 -957
-2252 -784 -3470 62 -438 189 -888 366 -1295 66 -153 220 -451 298 -580 623
-1026 1590 -1799 2719 -2172 339 -112 685 -185 1096 -230 179 -20 796 -17 988
5 923 105 1743 426 2472 970 1465 1093 2216 2899 1959 4712 -58 411 -181 861
-334 1225 -384 911 -1034 1697 -1850 2237 -684 453 -1415 716 -2245 809 -173
19 -716 27 -895 13z m-365 -403 c0 -3 -4 -8 -10 -11 -5 -3 -10 -1 -10 4 0 6 5
11 10 11 6 0 10 -2 10 -4z m190 -106 c0 -5 -4 -10 -10 -10 -5 0 -10 5 -10 10
0 6 5 10 10 10 6 0 10 -4 10 -10z m1465 -40 c3 -5 -1 -10 -10 -10 -9 0 -13 5
-10 10 3 6 8 10 10 10 2 0 7 -4 10 -10z m-2095 -25 c0 -8 -4 -15 -10 -15 -5 0
-10 7 -10 15 0 8 5 15 10 15 6 0 10 -7 10 -15z m-280 -39 c0 -11 -19 -15 -25
-6 -3 5 1 10 9 10 9 0 16 -2 16 -4z m2170 -37 c0 -6 -4 -7 -10 -4 -5 3 -10 11
-10 16 0 6 5 7 10 4 6 -3 10 -11 10 -16z m-975 -199 c-3 -5 -15 -10 -26 -10
-11 0 -17 5 -14 10 3 6 15 10 26 10 11 0 17 -4 14 -10z m-835 -26 c0 -8 -4
-12 -10 -9 -5 3 -10 10 -10 16 0 5 5 9 10 9 6 0 10 -7 10 -16z m620 -94 c0 -5
-7 -10 -15 -10 -8 0 -15 5 -15 10 0 6 7 10 15 10 8 0 15 -4 15 -10z m-1160
-25 c0 -8 -4 -15 -9 -15 -13 0 -22 16 -14 24 11 11 23 6 23 -9z m1729 -19 c10
-17 10 -29 2 -42 -10 -18 -10 -18 -11 3 0 12 -4 25 -10 28 -12 7 -13 35 -2 35
5 0 14 -11 21 -24z m-1039 -6 c0 -5 -4 -10 -10 -10 -5 0 -10 5 -10 10 0 6 5
10 10 10 6 0 10 -4 10 -10z m3380 -30 c0 -11 -4 -20 -10 -20 -5 0 -10 9 -10
20 0 11 5 20 10 20 6 0 10 -9 10 -20z m-2340 -70 c0 -5 -4 -10 -10 -10 -5 0
-10 5 -10 10 0 6 5 10 10 10 6 0 10 -4 10 -10z m-1365 -60 c3 -5 -1 -10 -9
-10 -9 0 -16 5 -16 10 0 6 4 10 9 10 6 0 13 -4 16 -10z m805 -20 c0 -5 -2 -10
-4 -10 -3 0 -8 5 -11 10 -3 6 -1 10 4 10 6 0 11 -4 11 -10z m760 -51 c0 -5 -4
-9 -10 -9 -5 0 -10 7 -10 16 0 8 5 12 10 9 6 -3 10 -10 10 -16z m-920 -30 c0
-6 -4 -7 -10 -4 -5 3 -10 11 -10 16 0 6 5 7 10 4 6 -3 10 -11 10 -16z m1460
-3 c0 -11 -19 -15 -25 -6 -3 5 1 10 9 10 9 0 16 -2 16 -4z m-3883 -223 c7 -16
17 -35 22 -43 24 -38 24 -66 -2 -62 -11 2 -23 -2 -27 -9 -5 -6 -16 -9 -25 -5
-14 5 -15 9 -5 21 16 19 6 32 -31 40 l-31 7 38 39 c21 21 41 39 44 39 3 0 11
-12 17 -27z m2103 17 c0 -5 -2 -10 -4 -10 -3 0 -8 5 -11 10 -3 6 -1 10 4 10 6
0 11 -4 11 -10z m3810 -20 c0 -5 -4 -10 -10 -10 -5 0 -10 5 -10 10 0 6 5 10
10 10 6 0 10 -4 10 -10z m-3290 -70 c13 -8 13 -10 -2 -10 -9 0 -20 5 -23 10
-8 13 5 13 25 0z m410 -14 c0 -3 -4 -8 -10 -11 -5 -3 -10 -1 -10 4 0 6 5 11
10 11 6 0 10 -2 10 -4z m130 -22 c0 -8 -4 -12 -10 -9 -5 3 -10 10 -10 16 0 5
5 9 10 9 6 0 10 -7 10 -16z m480 6 c0 -5 -2 -10 -4 -10 -3 0 -8 5 -11 10 -3 6
-1 10 4 10 6 0 11 -4 11 -10z m-1070 -20 c0 -5 -9 -10 -20 -10 -11 0 -20 5
-20 10 0 6 9 10 20 10 11 0 20 -4 20 -10z m-2555 -21 c12 -19 -5 -23 -22 -6
-16 16 -16 17 -1 17 9 0 20 -5 23 -11z m5916 -16 c-8 -15 -10 -15 -11 -2 0 17
10 32 18 25 2 -3 -1 -13 -7 -23z m-6054 -128 c3 -22 11 -47 18 -55 7 -8 16
-46 20 -83 7 -60 9 -67 26 -62 20 7 28 -18 9 -30 -5 -3 -10 -19 -10 -35 0 -28
-14 -48 -23 -33 -2 5 -2 2 0 -5 1 -8 3 -28 3 -46 0 -23 9 -42 26 -59 23 -23
24 -28 10 -33 -9 -3 -16 -13 -16 -21 0 -17 62 -9 97 13 12 8 28 14 35 14 17 0
56 101 68 173 15 97 37 117 108 98 53 -15 132 -10 132 7 0 7 5 10 10 7 6 -3
10 -15 10 -26 0 -13 7 -19 24 -19 13 0 26 6 29 13 6 18 47 -21 47 -45 0 -29
44 -20 48 10 4 25 19 28 41 8 10 -9 22 -12 30 -7 10 7 9 10 -8 16 -34 11 -6
35 40 35 26 0 39 5 39 13 0 21 -12 28 -27 16 -14 -13 -37 1 -53 31 -8 14 -5
16 15 12 20 -3 27 1 35 23 8 22 15 26 34 21 15 -4 40 3 71 20 34 18 50 22 55
14 4 -7 18 -17 31 -24 20 -10 23 -19 21 -49 -3 -44 19 -51 47 -15 l18 21 7
-27 c4 -15 10 -24 15 -22 13 8 34 -22 28 -39 -4 -8 -2 -17 3 -20 18 -11 10
-23 -20 -30 -17 -4 -30 -13 -30 -21 0 -12 4 -12 21 -4 11 7 27 9 35 6 19 -7
18 -46 -1 -46 -9 0 -18 -7 -22 -15 -8 -22 17 -106 34 -112 19 -7 16 -27 -7
-48 -23 -21 -26 -35 -6 -35 16 0 25 -19 18 -37 -2 -7 -10 -13 -17 -13 -15 0
-45 -27 -45 -41 0 -5 11 -11 25 -15 18 -4 24 -11 20 -23 -4 -13 7 -22 45 -38
27 -12 50 -25 50 -31 0 -16 -49 -32 -79 -26 -24 5 -29 2 -35 -20 -4 -18 -1
-32 11 -45 37 -40 43 -50 38 -64 -3 -7 6 -30 20 -51 19 -28 23 -41 15 -51 -14
-17 -3 -43 21 -50 10 -4 19 -11 19 -16 0 -13 -13 -11 -38 7 -35 25 -40 7 -7
-25 38 -35 65 -46 65 -26 0 17 2 17 24 9 9 -3 16 -12 16 -20 0 -9 -15 -12 -52
-11 -41 1 -54 -2 -56 -15 -3 -16 24 -28 66 -28 13 0 22 6 22 16 0 9 7 14 17
12 22 -4 29 -28 9 -28 -9 0 -16 -7 -16 -15 0 -9 9 -15 23 -15 12 0 33 -10 47
-21 l25 -21 -32 6 c-37 6 -48 -5 -33 -34 15 -28 48 -25 60 6 6 14 14 22 20 19
15 -9 12 -32 -5 -39 -8 -3 -15 -12 -15 -20 0 -20 -59 -48 -84 -40 -12 3 -36
17 -54 31 -18 13 -47 26 -65 28 l-32 4 31 -17 c55 -30 174 -135 174 -153 0 -4
-6 -10 -12 -12 -17 -7 7 -25 45 -34 39 -8 34 -24 -5 -16 l-33 6 19 -22 c19
-21 19 -22 0 -36 -21 -17 -108 -12 -132 7 -8 7 -16 8 -23 1 -6 -6 21 -19 78
-37 136 -43 143 -47 159 -77 14 -29 14 -29 -17 -29 -27 0 -30 -2 -19 -15 11
-13 8 -15 -15 -15 -42 0 -24 -10 67 -39 45 -15 83 -31 85 -38 5 -13 -78 -63
-104 -63 -10 0 -31 -7 -46 -15 -15 -8 -43 -17 -63 -21 -19 -3 -37 -10 -40 -15
-3 -5 -15 -9 -27 -9 -12 -1 -33 -7 -46 -14 -22 -12 -19 -13 30 -8 30 2 61 8
69 12 28 14 95 20 130 11 19 -5 29 -9 23 -10 -7 -1 -13 -4 -13 -9 0 -4 18 -8
41 -8 22 -1 48 -9 56 -17 15 -14 14 -16 -10 -23 -41 -10 -33 -19 28 -34 58
-14 70 -26 33 -33 l-23 -4 23 -9 c22 -9 21 -11 -21 -32 -24 -12 -49 -22 -55
-22 -6 0 -17 -8 -24 -19 -7 -10 -28 -22 -46 -25 -18 -4 -30 -12 -26 -17 7 -12
60 -12 84 1 23 12 170 22 170 11 0 -5 -20 -14 -45 -21 -65 -18 -69 -34 -7 -25
43 6 53 4 70 -13 22 -22 12 -42 -20 -42 -10 0 -18 -5 -18 -11 0 -8 13 -9 40
-5 43 7 54 -7 23 -29 -21 -16 -9 -35 20 -28 18 5 16 0 -13 -25 -19 -17 -42
-31 -50 -32 -8 0 -22 -5 -30 -10 -10 -8 3 -9 46 -4 60 6 61 6 66 -20 4 -21 1
-27 -18 -32 -31 -8 -30 -20 1 -28 18 -5 25 -13 25 -31 0 -14 8 -29 20 -35 28
-15 25 -23 -14 -44 -34 -18 -53 -56 -40 -78 4 -6 21 -8 40 -5 39 7 85 -12 81
-33 -1 -8 8 -19 21 -25 34 -15 26 -31 -14 -26 -7 1 -9 -16 -6 -48 4 -50 4 -50
-34 -66 -26 -12 -34 -19 -24 -23 65 -23 64 -22 48 -38 -9 -9 -31 -19 -49 -23
-30 -7 -34 -11 -32 -38 3 -34 -10 -49 -47 -55 -14 -2 -29 -13 -35 -26 -13 -29
-45 -39 -60 -18 -15 20 -25 21 -25 1 0 -10 -10 -15 -30 -15 -16 0 -32 1 -34 3
-6 3 -41 -44 -49 -66 -4 -9 -15 -20 -24 -24 -10 -3 -29 -15 -42 -25 -13 -10
-35 -18 -48 -18 -31 0 -103 -39 -103 -56 0 -6 -9 -14 -20 -17 -26 -7 -26 -27
1 -27 11 0 17 -4 14 -10 -3 -5 -20 -10 -37 -10 -26 0 -29 -2 -18 -15 11 -13 7
-15 -23 -15 -34 0 -67 -20 -67 -41 0 -5 -6 -9 -14 -9 -8 0 -18 -4 -21 -10 -11
-18 31 -11 54 9 13 11 36 23 52 26 16 4 33 14 38 23 6 11 22 17 45 17 46 0 49
-24 4 -26 -24 -1 -27 -3 -10 -6 32 -6 27 -23 -7 -23 -17 0 -33 -4 -36 -10 -3
-5 -14 -10 -24 -10 -9 0 -27 -9 -40 -21 -26 -24 -78 -41 -102 -34 -10 3 -20 1
-24 -5 -3 -6 3 -10 14 -10 15 0 21 -6 21 -22 l0 -21 23 21 c13 12 27 22 31 22
4 0 22 10 39 22 18 13 37 24 42 25 6 1 23 5 38 8 42 11 33 -10 -15 -34 -53
-26 -78 -45 -78 -58 0 -6 -9 -13 -19 -16 -13 -3 -18 -11 -15 -23 3 -13 -6 -26
-31 -43 -19 -13 -35 -27 -35 -32 0 -16 60 -9 101 12 23 11 44 18 47 15 8 -8
-38 -56 -54 -56 -15 0 -72 -30 -92 -47 -7 -7 -21 -13 -30 -13 -12 0 -13 -3 -5
-11 6 -6 9 -18 6 -25 -3 -8 0 -14 6 -14 6 0 11 -7 11 -15 0 -19 -24 -20 -39
-2 -8 10 -32 13 -90 9 -84 -5 -131 2 -131 18 0 6 10 10 23 10 17 0 19 2 7 10
-11 7 -12 12 -3 21 7 7 9 24 6 40 -4 21 -1 30 11 35 9 3 16 13 16 20 0 8 10
19 23 25 32 15 62 58 49 71 -7 7 -12 3 -17 -11 -3 -12 -10 -21 -15 -21 -5 0
-20 -11 -34 -25 -14 -14 -30 -25 -36 -25 -6 0 -13 -7 -16 -15 -4 -8 -13 -15
-21 -15 -10 0 -6 11 14 40 15 22 34 40 41 40 6 0 12 5 12 10 0 6 -7 10 -16 10
-8 0 -12 5 -9 10 3 6 15 10 26 10 29 0 23 18 -8 22 -27 3 -31 11 -22 48 2 8
12 18 22 22 25 11 21 28 -8 28 -14 0 -25 2 -25 4 0 2 -3 11 -6 20 -5 12 0 16
20 16 35 0 33 13 -5 27 -37 14 -30 33 12 33 16 0 29 5 29 10 0 6 -9 10 -20 10
-11 0 -20 5 -20 10 0 6 9 10 21 10 30 0 61 20 55 35 -3 8 6 23 21 35 21 16 23
22 13 35 -13 15 -9 18 25 16 23 -1 62 25 52 35 -4 4 -12 3 -19 -3 -7 -5 -27
-10 -45 -11 -49 -3 -86 -20 -80 -36 10 -25 -18 -37 -64 -30 -40 6 -42 5 -25
-9 19 -14 19 -15 -2 -26 -26 -14 -69 -14 -77 -1 -3 6 -15 10 -26 10 -13 0 -19
-7 -19 -23 0 -25 -17 -47 -35 -47 -7 0 -12 14 -12 30 0 22 5 30 19 30 10 0 18
5 18 10 0 6 -6 10 -12 9 -17 -1 -56 -17 -44 -18 6 -1 1 -7 -9 -15 -11 -8 -16
-19 -12 -30 6 -16 -5 -32 -45 -64 -12 -10 -22 -11 -37 -3 -17 9 -20 8 -23 -11
-2 -19 -11 -24 -53 -30 -34 -5 -52 -3 -57 5 -12 19 -9 27 10 27 26 0 34 11 21
27 -9 10 -8 13 4 13 9 0 20 -7 25 -15 7 -13 14 -14 35 -6 28 11 34 34 18 60
-8 12 -13 11 -29 -10 -25 -29 -36 -21 -22 16 7 18 15 25 26 21 11 -4 14 -1 12
11 -2 9 -11 17 -21 19 -29 4 -32 13 -11 28 19 14 14 31 -9 31 -7 0 -11 13 -10
28 1 15 -2 25 -6 23 -4 -3 -15 4 -24 14 -12 14 -13 21 -4 27 8 5 3 9 -13 13
-16 4 -26 14 -28 28 -4 27 -28 29 -37 2 -3 -11 -13 -20 -21 -20 -8 0 -14 -9
-14 -20 0 -20 -1 -20 -25 -3 -22 15 -25 24 -21 55 4 34 2 37 -26 43 -16 4 -32
4 -35 1 -9 -9 -33 14 -33 31 0 11 7 14 21 10 15 -4 22 1 29 18 5 13 14 26 19
30 8 4 8 12 1 26 -8 13 -7 19 0 19 6 0 8 5 5 11 -4 5 -17 9 -28 8 -48 -3 -54
0 -55 32 -1 38 -18 59 -25 33 -17 -59 -18 -87 -6 -95 12 -7 12 -9 0 -9 -11 0
-11 -3 -1 -15 9 -11 10 -19 3 -26 -7 -7 -7 -24 -1 -51 7 -31 5 -44 -5 -57 -8
-9 -18 -26 -21 -38 -10 -32 -34 -49 -49 -34 -8 8 -7 19 8 43 10 17 22 48 25
67 4 20 9 42 11 50 2 7 -2 16 -8 18 -9 3 -13 -5 -13 -22 0 -15 -11 -40 -25
-57 -14 -16 -25 -37 -25 -47 0 -10 -12 -23 -26 -30 -22 -9 -24 -14 -14 -26 10
-13 9 -19 -5 -34 -10 -12 -14 -27 -11 -39 9 -26 -19 -89 -45 -102 -25 -14 -36
-6 -20 13 18 22 21 94 5 108 -8 6 -14 19 -14 29 0 10 -7 23 -15 30 -10 8 -14
27 -13 54 3 37 1 41 -19 38 -29 -4 -29 3 2 32 32 30 32 41 -5 56 -16 7 -30 16
-30 21 0 5 -7 9 -15 9 -22 0 -18 -27 5 -33 12 -3 20 -14 20 -27 0 -13 -8 -24
-20 -27 -27 -7 -25 -37 3 -65 55 -54 73 -112 38 -121 -10 -2 -20 -16 -23 -30
-4 -22 0 -28 23 -36 16 -5 29 -16 29 -24 0 -22 -33 -31 -46 -13 -13 19 -34 21
-34 4 0 -7 -15 -24 -33 -37 -30 -22 -33 -29 -31 -68 2 -23 -1 -45 -7 -48 -5
-4 -9 -17 -9 -31 0 -14 -5 -35 -11 -46 -10 -18 -8 -24 12 -39 24 -18 24 -19 7
-51 -10 -18 -20 -45 -24 -60 -7 -30 -22 -36 -42 -16 -6 6 -15 8 -19 4 -4 -4 0
-12 10 -17 9 -6 17 -19 17 -29 0 -20 -32 -44 -44 -33 -17 18 -36 10 -36 -15 0
-24 1 -25 13 -7 10 13 16 15 21 6 9 -14 -12 -81 -25 -81 -5 0 -9 -7 -9 -15 0
-8 3 -15 8 -15 13 0 44 -89 37 -110 -3 -11 -3 -29 0 -41 6 -17 13 -20 36 -15
28 5 41 -8 17 -17 -10 -4 -10 -7 -1 -18 10 -10 9 -16 -4 -31 -19 -21 -39 -23
-46 -5 -4 9 -7 9 -18 0 -7 -7 -24 -13 -38 -13 l-26 -1 28 -15 c28 -15 35 -46
17 -74 -8 -12 -13 -13 -30 -2 -26 16 -33 15 -27 -2 3 -8 1 -17 -6 -19 -16 -5
10 -37 30 -37 10 0 11 -4 3 -19 -7 -13 -7 -22 0 -26 15 -10 12 -35 -4 -29 -8
3 -17 0 -21 -6 -5 -8 5 -10 38 -5 27 4 53 3 64 -4 17 -10 16 -10 -5 -11 -13 0
-37 -7 -53 -16 -25 -12 -28 -18 -18 -30 6 -8 18 -14 26 -14 8 0 11 -5 7 -11
-4 -8 -9 -8 -17 0 -15 15 -38 14 -34 -1 1 -8 -12 -14 -33 -16 -47 -4 -66 -32
-50 -73 13 -30 22 -33 78 -30 44 3 40 -13 -7 -27 -24 -8 -41 -20 -44 -32 -4
-16 -11 -19 -39 -15 -23 3 -26 2 -10 -3 22 -7 25 -13 15 -39 -6 -15 -33 -17
-33 -3 0 6 -10 10 -22 10 -19 0 -20 -2 -6 -17 8 -10 18 -26 21 -35 4 -10 13
-18 21 -18 8 0 27 -5 43 -11 39 -14 15 -26 -47 -23 -53 4 -58 -1 -35 -32 8
-10 15 -26 15 -35 0 -19 -40 -30 -63 -17 -13 7 -15 3 -14 -19 2 -26 -1 -28
-31 -25 -43 3 -38 -17 7 -33 28 -9 31 -13 18 -23 -9 -8 -26 -10 -41 -6 -23 5
-25 4 -20 -12 4 -11 12 -25 17 -32 17 -22 -9 -39 -30 -20 -32 27 -41 29 -36 9
3 -12 -3 -24 -16 -33 -21 -15 -23 -40 -6 -95 6 -19 3 -23 -14 -23 -14 0 -21
-6 -21 -20 0 -11 -6 -20 -14 -20 -21 0 -30 -20 -17 -33 6 -6 11 -19 11 -29 0
-14 -8 -18 -34 -18 -19 0 -36 -5 -38 -11 -5 -15 -113 214 -173 366 -287 727
-385 1535 -280 2308 74 543 206 986 435 1452 91 185 227 420 309 535 l46 65 6
-91 c6 -99 12 -116 35 -107 10 4 14 1 12 -10 -3 -15 121 -137 140 -137 6 0 17
-8 24 -18 16 -23 66 -46 133 -62 64 -15 86 -29 110 -73 17 -32 17 -39 5 -62
-9 -17 -10 -29 -3 -36 17 -17 56 86 49 130 -8 51 -8 52 4 96 6 22 16 66 21 98
10 64 51 152 98 211 24 30 29 42 20 52 -7 8 -15 86 -20 185 -8 134 -7 180 4
217 7 26 12 72 10 102 -2 30 -3 62 -4 70 0 8 -5 25 -11 37 -6 12 -7 30 -3 40
6 14 10 10 17 -22 5 -22 12 -58 15 -80z m2688 95 c3 -5 -1 -10 -10 -10 -9 0
-13 5 -10 10 3 6 8 10 10 10 2 0 7 -4 10 -10z m3370 -15 c0 -10 -5 -20 -11
-22 -13 -4 -27 24 -18 38 9 15 29 4 29 -16z m-335 -40 c0 -8 -4 -15 -10 -15
-5 0 -10 7 -10 15 0 8 5 15 10 15 6 0 10 -7 10 -15z m-4800 -25 c0 -5 -6 -10
-14 -10 -8 0 -18 5 -21 10 -3 6 3 10 14 10 12 0 21 -4 21 -10z m5320 -20 c0
-5 -4 -10 -10 -10 -5 0 -10 5 -10 10 0 6 5 10 10 10 6 0 10 -4 10 -10z m-5550
-22 c0 -9 -38 -13 -86 -10 -17 2 -48 -4 -71 -12 -45 -16 -75 -7 -55 17 9 10
37 14 112 13 55 -1 100 -4 100 -8z m3635 -18 c3 -5 1 -10 -4 -10 -6 0 -11 5
-11 10 0 6 2 10 4 10 3 0 8 -4 11 -10z m-3925 -20 c8 -5 12 -12 9 -15 -8 -8
-39 5 -39 16 0 11 11 11 30 -1z m5888 -71 c-18 -12 -23 8 -6 28 12 15 13 15
16 -2 2 -10 -2 -21 -10 -26z m-5838 11 c0 -13 -7 -20 -20 -20 -22 0 -23 1 -14
24 9 23 34 20 34 -4z m145 -21 c-8 -12 -35 -12 -35 0 0 11 22 20 33 14 4 -2 5
-9 2 -14z m117 9 c-9 -9 -15 -9 -24 0 -9 9 -7 12 12 12 19 0 21 -3 12 -12z
m-850 -113 c0 -5 -5 -11 -11 -13 -6 -2 -11 4 -11 13 0 9 5 15 11 13 6 -2 11
-8 11 -13z m4413 5 c3 -5 1 -10 -4 -10 -6 0 -11 5 -11 10 0 6 2 10 4 10 3 0 8
-4 11 -10z m-2020 -31 c10 -14 1 -21 -19 -13 -9 3 -13 10 -10 15 7 12 21 11
29 -2z m115 -20 c0 -6 -4 -7 -10 -4 -5 3 -10 11 -10 16 0 6 5 7 10 4 6 -3 10
-11 10 -16z m4100 11 c0 -5 -2 -10 -4 -10 -3 0 -8 5 -11 10 -3 6 -1 10 4 10 6
0 11 -4 11 -10z m-5265 -40 c-8 -13 -50 5 -53 23 -3 15 0 15 27 1 17 -9 29
-20 26 -24z m2821 -47 c-7 -7 -26 7 -26 19 0 6 6 6 15 -2 9 -7 13 -15 11 -17z
m-2782 -19 c10 -27 7 -54 -7 -54 -17 0 -42 45 -33 59 10 16 33 13 40 -5z
m4756 6 c0 -5 -4 -10 -10 -10 -5 0 -10 5 -10 10 0 6 5 10 10 10 6 0 10 -4 10
-10z m-4680 -44 c0 -3 -4 -8 -10 -11 -5 -3 -10 -1 -10 4 0 6 5 11 10 11 6 0
10 -2 10 -4z m56 -73 c-10 -10 -19 5 -10 18 6 11 8 11 12 0 2 -7 1 -15 -2 -18z
m5144 7 c0 -5 -4 -10 -10 -10 -5 0 -10 5 -10 10 0 6 5 10 10 10 6 0 10 -4 10
-10z m-5294 -29 c-9 -13 -46 -15 -46 -1 0 14 34 30 44 20 4 -4 5 -13 2 -19z
m2184 19 c0 -5 -2 -10 -4 -10 -3 0 -8 5 -11 10 -3 6 -1 10 4 10 6 0 11 -4 11
-10z m550 -11 c0 -6 -4 -7 -10 -4 -5 3 -10 11 -10 16 0 6 5 7 10 4 6 -3 10
-11 10 -16z m60 6 c0 -9 -6 -12 -15 -9 -8 4 -15 10 -15 15 0 5 7 9 15 9 8 0
15 -7 15 -15z m2600 5 c0 -5 -4 -10 -10 -10 -5 0 -10 5 -10 10 0 6 5 10 10 10
6 0 10 -4 10 -10z m-2240 -10 c0 -5 -5 -10 -11 -10 -5 0 -7 5 -4 10 3 6 8 10
11 10 2 0 4 -4 4 -10z m1870 -11 c0 -5 -4 -9 -10 -9 -5 0 -10 7 -10 16 0 8 5
12 10 9 6 -3 10 -10 10 -16z m-2450 -19 c0 -11 -7 -20 -15 -20 -15 0 -21 21
-8 33 12 13 23 7 23 -13z m-2406 -5 c-4 -8 -10 -15 -15 -15 -5 0 -9 7 -9 15 0
8 7 15 15 15 9 0 12 -6 9 -15z m4986 0 c0 -8 -4 -15 -10 -15 -5 0 -10 7 -10
15 0 8 5 15 10 15 6 0 10 -7 10 -15z m353 -5 c-3 -11 -9 -20 -14 -20 -10 0
-12 24 -2 33 13 13 21 7 16 -13z m-5563 -6 c0 -9 -5 -14 -12 -12 -18 6 -21 28
-4 28 9 0 16 -7 16 -16z m2287 -16 c-3 -8 -6 -5 -6 6 -1 11 2 17 5 13 3 -3 4
-12 1 -19z m3613 -54 c45 -69 48 -78 34 -89 -22 -16 -11 -85 13 -85 13 0 14
-3 5 -12 -15 -15 -16 -55 0 -64 8 -5 6 -11 -7 -20 -15 -11 -16 -16 -6 -28 7
-8 10 -19 7 -25 -4 -5 3 -25 14 -44 12 -21 18 -41 13 -52 -5 -14 -3 -17 10
-12 23 9 23 -38 1 -51 -32 -18 -4 -30 81 -34 70 -4 89 -8 108 -26 13 -12 28
-22 34 -22 22 0 152 -313 234 -565 203 -617 273 -1336 194 -1986 -20 -165 -55
-349 -66 -349 -5 0 -9 -8 -9 -18 0 -10 -14 -37 -31 -60 -16 -23 -34 -54 -39
-69 -4 -15 -11 -36 -15 -45 -6 -14 -2 -18 18 -18 14 0 29 -4 32 -10 13 -22
-113 -415 -215 -670 -91 -228 -285 -589 -443 -824 -378 -563 -933 -1081 -1517
-1415 l-124 -71 -24 22 c-24 23 -24 23 -3 26 15 2 24 13 28 34 3 16 12 32 19
35 8 3 14 11 14 19 0 18 19 18 40 -1 14 -12 21 -13 43 -2 15 6 27 20 27 30 0
19 20 23 36 7 14 -14 30 4 39 43 8 29 -8 39 -19 11 -4 -11 -14 -14 -35 -9 -37
8 -69 -8 -73 -36 -3 -21 -4 -20 -31 5 -35 32 -41 32 -56 -1 -11 -24 -13 -25
-28 -10 -12 12 -21 13 -39 5 -26 -12 -31 -37 -13 -55 13 -13 5 -43 -12 -43 -9
0 -9 4 0 14 17 20 -3 30 -31 15 -42 -22 -88 -64 -88 -79 0 -8 9 -21 20 -28 23
-14 25 -10 8 18 -16 25 -3 38 22 22 21 -13 33 -2 24 22 -3 9 -3 16 0 16 13 0
44 -36 48 -55 2 -11 10 -20 18 -21 33 -2 40 -4 40 -12 0 -12 -49 -34 -60 -27
-5 3 -11 1 -15 -5 -3 -5 -16 -10 -27 -10 -12 0 -29 -7 -38 -15 -16 -14 -21
-12 -58 25 -35 36 -44 40 -61 30 -12 -6 -21 -15 -21 -20 0 -5 -10 -10 -22 -12
-14 -2 -22 -11 -23 -25 -1 -13 -5 -26 -9 -30 -10 -10 -25 17 -19 34 3 7 0 13
-7 13 -7 0 -10 -8 -7 -20 8 -30 -25 -45 -41 -19 -7 11 -18 19 -25 18 -34 -4
-39 1 -35 36 3 27 1 34 -10 30 -7 -3 -22 0 -33 5 -15 8 -19 7 -19 -5 0 -16
-26 -21 -32 -6 -2 4 -33 5 -72 0 -57 -7 -71 -6 -80 7 -26 34 -56 -16 -32 -54
4 -7 2 -12 -4 -12 -6 0 -15 11 -20 24 l-9 25 -39 -37 c-70 -66 -95 -77 -105
-49 -3 9 -9 9 -25 0 -11 -6 -22 -9 -25 -6 -7 6 21 54 38 65 5 4 10 11 10 15 0
4 14 22 30 39 17 16 47 49 67 72 21 23 42 42 48 42 6 0 26 11 43 23 18 13 47
30 65 37 17 7 32 16 32 20 0 4 20 17 45 30 42 22 70 50 120 125 31 44 65 119
65 140 0 10 6 26 13 34 8 9 24 49 37 89 12 40 26 75 31 78 4 2 5 12 2 20 -3 8
-1 25 5 37 6 12 13 39 17 59 3 20 11 38 18 41 11 3 17 33 20 102 1 17 6 34 12
38 5 4 -3 5 -20 1 -16 -4 -34 -11 -39 -15 -19 -17 -38 -10 -31 11 3 11 3 20
-2 20 -11 0 -58 -51 -66 -72 -3 -10 -16 -18 -27 -18 -15 0 -20 -7 -20 -24 0
-15 -15 -40 -36 -63 -29 -30 -37 -46 -37 -75 0 -28 -5 -39 -18 -43 -11 -4 -19
-12 -19 -19 0 -7 -10 -12 -22 -12 -21 1 -23 -3 -20 -46 3 -39 1 -48 -12 -48
-9 0 -16 8 -16 20 0 11 -4 20 -8 20 -16 0 -44 -39 -37 -50 11 -18 -3 -44 -18
-32 -7 6 -27 10 -45 10 -31 -1 -32 -2 -16 -20 15 -16 15 -18 2 -18 -9 0 -18
-9 -21 -19 -6 -23 -40 -18 -70 10 -18 16 -18 18 -2 43 16 24 43 28 29 4 -4 -6
-1 -9 7 -6 8 2 15 18 17 34 5 38 20 54 32 34 7 -10 8 -5 4 18 -5 25 -3 33 7
32 33 -5 47 2 53 25 3 13 16 30 29 36 26 13 66 59 67 75 0 6 7 17 15 24 8 7
15 21 15 31 0 11 7 19 15 19 8 0 15 9 15 20 0 11 5 20 10 20 6 0 10 6 10 14 0
8 18 31 40 52 22 21 42 45 45 55 3 9 16 21 29 27 18 8 23 16 19 31 -3 12 -1
21 4 21 5 0 17 16 26 35 9 19 21 35 27 35 5 0 10 8 10 18 0 9 9 28 20 42 11
14 20 31 20 38 0 7 10 26 21 41 12 16 18 34 15 40 -4 6 0 31 9 56 8 25 15 61
15 80 0 18 5 37 10 40 14 9 3 25 -17 25 -9 0 -13 -6 -10 -14 4 -9 -7 -29 -23
-46 -16 -17 -27 -37 -23 -46 3 -9 -7 -19 -31 -29 -30 -13 -36 -20 -31 -36 9
-26 -11 -49 -42 -49 -22 0 -24 -3 -19 -24 3 -14 2 -28 -4 -31 -5 -3 -10 -15
-10 -26 0 -10 -7 -19 -15 -19 -9 0 -25 -16 -36 -35 -11 -19 -29 -37 -40 -40
-10 -4 -19 -14 -19 -24 0 -10 -13 -30 -30 -44 -16 -15 -30 -36 -30 -47 0 -13
-7 -20 -18 -20 -11 0 -26 -8 -36 -19 -19 -21 -25 -93 -8 -99 17 -5 15 -22 -3
-22 -8 0 -15 -4 -15 -10 0 -5 -5 -10 -11 -10 -8 0 -7 5 1 16 11 13 8 19 -18
44 l-31 28 18 55 c11 30 27 66 36 81 10 14 14 33 10 45 -3 10 -2 22 3 25 5 3
9 26 10 52 0 26 5 50 12 54 6 4 10 13 9 21 -1 8 1 22 4 32 4 9 9 24 12 32 2 8
10 14 17 13 7 -2 13 6 13 19 0 11 3 24 6 28 10 9 -2 46 -12 39 -5 -3 -9 -16
-9 -30 0 -14 -6 -24 -14 -24 -18 0 -30 16 -18 24 5 3 7 18 4 34 -2 16 1 33 7
36 7 5 7 14 -1 31 -14 31 -4 55 22 55 15 0 20 7 20 25 0 14 5 25 10 25 6 0 10
5 10 11 0 7 -9 9 -23 5 -36 -9 -59 14 -60 60 0 21 -4 45 -10 51 -5 7 -6 21 -1
30 10 25 15 363 4 363 -4 0 -11 -19 -15 -42 -4 -24 -15 -48 -23 -54 -14 -10
-14 -13 1 -28 24 -25 21 -37 -8 -30 -26 6 -31 -6 -25 -59 1 -10 -4 -25 -11
-34 -7 -8 -12 -30 -11 -48 3 -47 -12 -51 -34 -8 -11 20 -24 38 -30 40 -12 4
-12 -51 0 -79 5 -10 1 -27 -9 -41 -10 -16 -14 -34 -9 -51 5 -20 2 -26 -9 -26
-9 0 -20 8 -26 17 -5 10 -13 14 -17 10 -4 -4 -2 -13 4 -19 18 -18 14 -33 -12
-48 -14 -7 -22 -18 -20 -25 3 -6 -2 -18 -11 -25 -16 -14 -21 -45 -5 -35 6 3
10 -1 10 -9 0 -10 -6 -13 -15 -10 -8 4 -15 1 -15 -5 0 -6 -11 -17 -25 -23 -24
-11 -35 -38 -15 -38 6 0 10 -9 10 -20 0 -11 -7 -20 -15 -20 -9 0 -12 -6 -8
-16 3 -9 0 -20 -8 -25 -11 -7 -11 -9 3 -9 9 0 20 -9 23 -21 8 -25 -3 -39 -15
-19 -5 8 -12 11 -17 7 -4 -5 -1 -12 6 -16 7 -5 11 -13 7 -19 -3 -6 -2 -14 4
-17 7 -4 1 -16 -15 -31 -15 -13 -30 -22 -35 -19 -13 8 -60 -25 -60 -42 0 -10
6 -12 22 -7 22 6 22 6 3 -12 -13 -13 -20 -15 -23 -6 -6 20 -22 14 -22 -9 0
-12 -5 -19 -12 -16 -15 5 -15 0 6 163 8 66 24 144 36 173 11 28 20 59 20 68 0
9 6 24 14 32 16 20 64 148 81 221 7 30 23 91 35 135 29 102 36 150 21 141 -6
-4 -11 -15 -11 -24 0 -9 -12 -33 -27 -54 -15 -22 -26 -51 -25 -68 0 -23 -4
-30 -19 -30 -11 0 -19 -7 -19 -16 0 -9 -13 -21 -30 -27 -16 -6 -30 -15 -30
-20 0 -5 6 -7 14 -4 20 8 28 -19 10 -34 -13 -10 -17 -10 -25 2 -6 10 -9 6 -9
-16 0 -33 -14 -62 -23 -48 -11 17 -6 333 5 333 4 0 8 7 8 15 0 21 -43 19 -64
-4 -15 -16 -15 -19 -1 -24 17 -7 21 -37 4 -37 -7 0 -9 -9 -6 -22 9 -33 -3 -70
-19 -64 -13 5 -20 -21 -16 -64 1 -8 -4 -25 -10 -38 -10 -18 -9 -25 1 -31 10
-7 8 -13 -10 -30 -12 -11 -29 -21 -36 -21 -8 0 -16 -6 -19 -14 -9 -23 -54 -29
-75 -10 -25 22 -37 10 -16 -14 23 -25 21 -38 -5 -46 -23 -6 -23 -6 -3 -22 11
-8 20 -27 20 -42 0 -18 6 -28 20 -30 17 -4 18 -2 6 12 -12 14 -12 21 -1 41 7
14 17 25 22 25 4 0 8 9 8 20 0 11 5 20 10 20 6 0 14 9 18 20 10 28 31 10 25
-22 -3 -16 -10 -25 -18 -22 -22 9 -28 -16 -9 -37 14 -15 14 -19 3 -19 -8 0
-20 5 -27 12 -10 10 -11 1 -6 -42 5 -49 4 -53 -10 -41 -9 8 -18 12 -19 10 -16
-25 -28 -59 -23 -68 4 -5 1 -19 -6 -30 -10 -16 -10 -23 0 -33 20 -20 13 -32
-8 -13 -21 19 -28 7 -8 -13 15 -15 6 -24 -16 -16 -11 4 -16 19 -17 53 -1 25
-3 60 -5 76 -2 17 -6 116 -9 220 -5 175 -29 416 -57 558 -9 48 -9 60 2 67 11
7 9 18 -8 60 -25 60 -27 77 -9 83 9 3 9 7 -1 20 -16 19 1 96 21 93 6 0 13 4
14 9 2 6 -6 10 -17 10 -24 0 -26 20 -2 21 48 1 131 61 117 83 -10 17 -65 14
-65 -4 0 -8 -4 -15 -10 -15 -5 0 -10 6 -10 14 0 7 -13 19 -30 26 -16 7 -30 19
-30 26 0 8 -4 14 -10 14 -21 0 -9 31 16 40 14 6 22 14 19 20 -9 14 25 60 51
70 19 8 23 19 29 90 6 68 5 84 -9 99 -14 15 -15 23 -5 45 15 31 29 34 36 6 7
-28 32 -25 43 5 5 14 16 25 25 25 8 0 15 5 15 10 0 6 8 10 18 10 30 0 46 18
49 52 5 64 15 103 30 115 19 14 32 78 33 153 0 31 6 64 13 75 13 18 23 74 42
217 3 26 17 67 30 90 16 29 24 59 23 92 0 54 16 81 33 56 9 -13 10 -13 6 2 -3
9 3 33 14 54 10 21 19 51 19 66 0 16 5 37 12 48 16 26 2 39 -17 14 -14 -18
-14 -17 -15 13 0 18 10 52 22 75 18 33 23 62 24 126 1 66 5 86 19 96 17 12 17
14 0 40 l-18 27 28 -7 c24 -6 27 -4 22 10 -8 19 37 71 52 61 5 -3 12 -1 16 5
3 5 1 10 -4 10 -6 0 -11 7 -11 15 0 17 25 20 35 5 10 -16 23 -3 44 45 11 25
25 45 30 45 16 0 51 -38 51 -54 0 -15 28 -42 35 -34 3 2 -4 22 -15 43 -11 22
-20 48 -20 60 1 17 4 16 31 -13 28 -31 31 -32 57 -18 69 37 121 54 169 54 29
1 55 -3 57 -7 3 -4 -2 -30 -10 -57 -14 -49 -16 -51 -65 -62 -28 -7 -81 -12
-118 -12 -105 0 -157 -20 -228 -89 -34 -32 -68 -72 -76 -88 -15 -28 -33 -123
-56 -288 -16 -114 -41 -254 -51 -294 -10 -39 4 -71 24 -51 17 17 26 11 26 -17
0 -26 2 -25 19 12 10 22 23 53 27 69 11 36 30 44 39 17 8 -27 35 -27 35 0 0
12 -8 23 -20 26 -24 6 -25 20 -3 45 22 25 40 23 47 -6 7 -28 36 -42 48 -24 4
7 6 23 3 35 -5 23 9 40 20 23 7 -11 58 -14 68 -4 3 4 0 13 -8 21 -8 8 -15 23
-15 34 0 14 7 19 30 19 16 0 47 9 69 21 22 11 45 18 50 15 12 -8 114 -15 107
-8 -10 9 16 32 35 32 25 0 24 14 -3 34 l-23 17 31 -5 c25 -4 38 1 68 28 20 19
36 41 36 50 0 18 16 22 22 5 2 -6 14 -5 33 5 17 9 47 16 68 16 24 0 40 5 43
15 4 9 19 15 35 15 16 0 29 5 29 10 0 6 -5 10 -12 10 -9 0 -9 3 0 12 19 19 14
38 -13 60 -30 24 -33 42 -5 33 13 -4 31 0 46 10 14 9 33 13 43 10 13 -4 20 0
24 15 3 12 13 20 26 20 28 0 46 42 22 51 -9 4 -20 3 -26 -2 -14 -13 -25 -11
-25 6 0 9 9 15 24 15 14 0 37 5 51 10 24 9 26 14 21 44 -5 25 -3 35 9 40 8 3
15 12 15 20 0 17 -45 52 -74 57 -27 6 -31 26 -6 34 14 5 28 1 42 -11 19 -18
20 -18 33 -1 6 9 17 17 23 17 7 0 9 11 6 28 -4 20 2 34 21 55 24 25 45 35 45
21 0 -3 -10 -14 -22 -24 -19 -15 -21 -21 -11 -43 9 -20 9 -28 -1 -36 -7 -6
-11 -23 -8 -40 3 -20 -2 -35 -16 -49 l-20 -20 24 -6 c33 -9 45 0 39 27 -6 25
1 37 31 54 16 9 24 9 33 0 8 -8 11 -5 11 10 0 12 5 25 10 28 6 3 10 18 10 32
0 13 9 36 20 50 11 14 20 32 20 39 0 8 5 14 10 14 6 0 10 8 10 18 0 10 9 25
20 35 11 9 20 23 20 31 0 8 6 21 13 28 7 7 28 39 46 71 29 50 51 66 51 36 0
-13 79 -116 109 -143 21 -19 28 -46 12 -46 -5 0 -12 -24 -16 -52 -11 -87 -10
-86 -62 -85 -45 1 -47 0 -72 -46 -30 -56 -22 -82 25 -82 16 0 34 -3 39 -6 6
-4 24 -10 42 -13 25 -6 34 -3 42 12 11 21 31 165 31 229 0 32 4 43 15 43 9 0
18 -6 21 -13 2 -7 24 -23 48 -37 26 -14 53 -39 65 -60 11 -19 29 -47 41 -60
13 -15 20 -34 17 -48 -3 -17 1 -26 17 -32 11 -4 37 -33 56 -64 19 -32 67 -99
107 -151 39 -52 77 -104 83 -115 6 -12 19 -29 28 -39 107 -113 137 -142 174
-167 24 -16 45 -32 48 -35 21 -23 184 -86 247 -95 37 -4 58 -2 81 10 17 9 39
16 49 16 22 1 80 46 70 56 -3 4 -13 1 -22 -6 -25 -21 -19 31 9 72 19 28 21 37
10 44 -11 7 -10 17 6 53 22 49 19 62 -10 43 -24 -15 -30 -15 -30 -2 0 6 6 10
14 10 8 0 17 11 20 25 4 15 14 25 24 25 16 0 17 13 17 142 0 103 -4 143 -13
146 -6 2 -12 -1 -12 -7 0 -6 -4 -11 -8 -11 -5 0 -9 13 -9 30 0 16 -7 38 -17
49 -15 17 -15 19 -1 25 9 3 13 11 10 16 -5 8 -11 8 -19 1 -9 -7 -16 -7 -24 1
-17 17 -15 25 8 31 15 4 20 14 20 40 0 19 -7 40 -15 47 -8 7 -12 16 -9 21 9
15 -15 47 -38 51 -13 2 -27 13 -33 25 -7 16 -15 21 -28 17 -14 -5 -17 0 -15
26 2 21 -3 35 -15 41 -18 11 -23 35 -8 41 5 2 3 14 -4 28 l-14 25 -1 -28 c0
-18 -4 -26 -11 -21 -6 4 -9 20 -6 38 3 22 -1 39 -14 55 -10 13 -19 31 -19 41
0 10 -6 20 -12 23 -7 2 -9 8 -5 13 4 5 11 4 15 -2 4 -5 20 -17 35 -27 21 -14
26 -23 21 -39 -4 -14 -2 -18 5 -14 19 12 12 42 -19 75 -17 17 -35 31 -40 31
-6 0 -10 9 -10 20 0 11 6 20 14 20 9 0 12 8 9 23 -5 23 -25 69 -33 77 -14 13
-40 61 -40 73 0 19 42 30 52 14 4 -6 5 -22 2 -34 -4 -15 2 -30 21 -49 31 -31
41 -26 27 15 -6 16 -8 47 -5 69 3 22 1 48 -5 58 -7 12 -6 24 2 37 8 15 8 21
-1 24 -7 3 -13 16 -13 29 0 30 30 33 37 4 3 -11 12 -20 19 -20 8 0 17 -7 20
-15 7 -18 21 -5 44 39 14 26 13 29 -8 46 -12 10 -22 28 -22 40 0 12 -14 40
-31 62 -29 35 -30 42 -19 64 11 20 11 27 -2 41 -24 28 -30 53 -13 53 9 0 15
-10 15 -25 0 -16 6 -25 15 -25 8 0 15 5 15 10 0 6 5 10 10 10 15 0 12 -21 -7
-42 -13 -15 -14 -23 -4 -44 20 -45 36 -23 37 52 0 38 6 86 13 107 9 27 10 46
2 68 -7 19 -7 38 -1 55 12 31 -4 68 -27 60 -27 -11 -45 20 -38 63 4 24 2 42
-4 46 -14 8 -14 65 -1 65 6 0 10 -15 10 -34 0 -36 15 -55 30 -40 14 14 -6 94
-26 109 -11 8 -14 14 -6 15 14 0 17 90 3 106 -9 10 -23 84 -15 84 2 0 27 -34
54 -76z m-3010 56 c0 -5 -5 -10 -11 -10 -5 0 -7 5 -4 10 3 6 8 10 11 10 2 0 4
-4 4 -10z m2490 -11 c0 -5 -4 -9 -10 -9 -5 0 -10 7 -10 16 0 8 5 12 10 9 6 -3
10 -10 10 -16z m-3360 1 c0 -5 -4 -10 -10 -10 -5 0 -10 5 -10 10 0 6 5 10 10
10 6 0 10 -4 10 -10z m-1840 -30 c0 -11 -7 -20 -15 -20 -15 0 -21 21 -8 33 12
13 23 7 23 -13z m-129 -16 l24 -27 -40 8 c-49 8 -51 10 -35 30 17 20 23 19 51
-11z m5274 16 c-3 -5 -11 -10 -16 -10 -6 0 -7 5 -4 10 3 6 11 10 16 10 6 0 7
-4 4 -10z m-2400 -10 c3 -5 1 -10 -4 -10 -6 0 -11 5 -11 10 0 6 2 10 4 10 3 0
8 -4 11 -10z m-445 -40 c0 -5 -2 -10 -4 -10 -3 0 -8 5 -11 10 -3 6 -1 10 4 10
6 0 11 -4 11 -10z m2934 -15 c4 -10 -1 -15 -14 -15 -20 0 -26 11 -13 23 10 11
20 8 27 -8z m-304 -15 c0 -5 -4 -10 -10 -10 -5 0 -10 5 -10 10 0 6 5 10 10 10
6 0 10 -4 10 -10z m320 -35 c0 -8 -4 -15 -10 -15 -5 0 -10 7 -10 15 0 8 5 15
10 15 6 0 10 -7 10 -15z m230 5 c0 -5 -4 -10 -10 -10 -5 0 -10 5 -10 10 0 6 5
10 10 10 6 0 10 -4 10 -10z m-5575 -20 c-3 -5 -13 -10 -21 -10 -8 0 -14 5 -14
10 0 6 9 10 21 10 11 0 17 -4 14 -10z m3352 -32 c-3 -8 -6 -5 -6 6 -1 11 2 17
5 13 3 -3 4 -12 1 -19z m1723 6 c0 -8 -5 -12 -10 -9 -6 4 -8 11 -5 16 9 14 15
11 15 -7z m-5160 -9 c0 -8 -4 -15 -10 -15 -5 0 -10 7 -10 15 0 8 5 15 10 15 6
0 10 -7 10 -15z m5470 5 c0 -5 -5 -10 -11 -10 -5 0 -7 5 -4 10 3 6 8 10 11 10
2 0 4 -4 4 -10z m31 -33 c-8 -8 -11 -7 -11 4 0 9 3 19 7 23 4 4 9 2 11 -4 3
-7 -1 -17 -7 -23z m27 -63 c2 -14 -3 -23 -15 -26 -14 -4 -18 2 -20 24 -2 23 1
29 15 26 9 -2 18 -13 20 -24z m-1868 6 c0 -5 -7 -10 -16 -10 -8 0 -12 5 -9 10
3 6 10 10 16 10 5 0 9 -4 9 -10z m1790 -40 c5 0 10 -7 10 -15 0 -8 5 -15 10
-15 6 0 10 -4 10 -10 0 -20 -21 -9 -38 20 -14 23 -21 27 -30 18 -9 -9 -12 -8
-12 3 0 8 5 20 12 27 10 10 14 8 20 -8 4 -11 12 -20 18 -20z m-5366 -6 c11
-27 7 -37 -9 -24 -16 14 -20 40 -6 40 5 0 12 -7 15 -16z m76 -10 c0 -8 -4 -14
-9 -14 -11 0 -22 26 -14 34 9 9 23 -3 23 -20z m3810 0 c0 -17 -22 -14 -28 4
-2 7 3 12 12 12 9 0 16 -7 16 -16z m2148 -83 c13 -23 18 -42 13 -46 -10 -6
-23 13 -41 59 -15 40 4 31 28 -13z m-5983 19 c3 -5 15 -10 26 -10 15 0 20 -6
17 -22 -4 -30 -34 -35 -43 -9 -3 12 -13 21 -20 21 -9 0 -12 6 -9 15 7 17 20
20 29 5z m3660 0 c3 -5 1 -10 -4 -10 -6 0 -11 5 -11 10 0 6 2 10 4 10 3 0 8
-4 11 -10z m1841 -35 c8 -43 14 -43 42 -5 13 17 29 30 37 30 22 0 18 -21 -5
-27 -21 -6 -27 -37 -10 -48 6 -3 10 -15 10 -26 0 -11 7 -22 15 -25 20 -8 19
-43 -3 -77 -22 -32 -35 -26 -21 10 15 41 10 50 -11 18 l-20 -30 6 35 c5 32 4
33 -9 17 -14 -17 -15 -15 -14 23 2 41 2 41 20 19 24 -30 33 -17 11 19 -18 31
-44 33 -44 3 0 -9 -9 4 -20 28 -11 24 -18 52 -14 63 8 26 22 13 30 -27z m-254
3 c-6 -6 -15 -9 -18 -5 -4 3 -4 14 0 23 5 13 9 15 18 6 9 -9 9 -15 0 -24z
m-143 -38 c0 -13 -1 -13 -8 0 -5 8 -12 26 -15 40 l-7 25 15 -25 c9 -14 15 -32
15 -40z m-543 13 c-10 -10 -19 5 -10 18 6 11 8 11 12 0 2 -7 1 -15 -2 -18z
m1199 7 c3 -5 1 -10 -4 -10 -6 0 -11 5 -11 10 0 6 2 10 4 10 3 0 8 -4 11 -10z
m-2630 -10 c3 -5 1 -10 -4 -10 -6 0 -11 5 -11 10 0 6 2 10 4 10 3 0 8 -4 11
-10z m2284 -21 c10 -23 10 -34 2 -42 -8 -8 -11 -5 -11 11 0 24 -10 28 -27 11
-8 -8 -13 -8 -18 0 -3 6 1 14 9 17 9 3 16 12 16 20 0 24 14 15 29 -17z m40 -6
c0 -31 -2 -34 -9 -18 -12 28 -12 55 0 55 6 0 10 -17 9 -37z m-2149 -13 c0 -5
-5 -10 -11 -10 -5 0 -7 5 -4 10 3 6 8 10 11 10 2 0 4 -4 4 -10z m2320 0 c0 -5
-5 -10 -11 -10 -5 0 -7 5 -4 10 3 6 8 10 11 10 2 0 4 -4 4 -10z m-1270 -10 c8
-5 11 -12 8 -15 -4 -4 -17 0 -30 9 -24 17 -5 23 22 6z m477 -12 c-3 -8 -6 -5
-6 6 -1 11 2 17 5 13 3 -3 4 -12 1 -19z m1213 -20 c0 -15 -19 -8 -29 11 -14
25 0 37 16 15 7 -10 13 -21 13 -26z m-776 17 c3 -8 1 -15 -3 -15 -5 0 -11 7
-15 15 -3 8 -1 15 3 15 5 0 11 -7 15 -15z m486 -25 c0 -5 -7 -10 -15 -10 -8 0
-15 5 -15 10 0 6 7 10 15 10 8 0 15 -4 15 -10z m-442 -20 c7 -11 10 -20 6 -20
-13 0 -44 21 -44 30 0 17 25 11 38 -10z m129 -12 c-3 -8 -6 -5 -6 6 -1 11 2
17 5 13 3 -3 4 -12 1 -19z m-1507 -18 c0 -5 -4 -10 -10 -10 -5 0 -10 5 -10 10
0 6 5 10 10 10 6 0 10 -4 10 -10z m1327 -67 c14 -24 23 -50 20 -57 -3 -8 3
-22 14 -32 18 -17 27 -55 12 -53 -8 0 -103 188 -103 203 0 16 31 -17 57 -61z
m273 6 c0 -5 -4 -9 -10 -9 -5 0 -10 7 -10 16 0 8 5 12 10 9 6 -3 10 -10 10
-16z m-1274 -16 c-10 -10 -19 5 -10 18 6 11 8 11 12 0 2 -7 1 -15 -2 -18z
m1214 -13 c0 -11 -2 -20 -5 -20 -2 0 -9 9 -15 20 -9 16 -8 20 5 20 8 0 15 -9
15 -20z m-147 -12 c6 -21 2 -36 -7 -27 -10 11 -16 49 -8 49 5 0 12 -10 15 -22z
m284 -25 c-21 -22 -32 -11 -15 16 8 13 16 17 22 11 7 -7 4 -16 -7 -27z m-1287
5 c0 -13 -23 -5 -28 10 -2 7 2 10 12 6 9 -3 16 -11 16 -16z m80 14 c0 -13 -12
-22 -22 -16 -10 6 -1 24 13 24 5 0 9 -4 9 -8z m-183 -24 c-3 -8 -6 -5 -6 6 -1
11 2 17 5 13 3 -3 4 -12 1 -19z m843 3 c0 -6 -4 -13 -10 -16 -5 -3 -10 1 -10
9 0 9 5 16 10 16 6 0 10 -4 10 -9z m590 -20 c0 -5 -6 -14 -14 -20 -12 -10 -13
-8 -9 8 5 21 23 30 23 12z m-1213 -33 c-3 -8 -6 -5 -6 6 -1 11 2 17 5 13 3 -3
4 -12 1 -19z m733 12 c0 -5 -2 -10 -4 -10 -3 0 -8 5 -11 10 -3 6 -1 10 4 10 6
0 11 -4 11 -10z m86 -28 c-9 -8 -26 10 -26 26 1 15 2 15 15 -2 8 -11 13 -21
11 -24z m324 29 c0 -5 -7 -11 -15 -15 -9 -3 -15 -18 -15 -37 0 -27 -2 -30 -15
-19 -20 16 -19 39 2 62 17 19 43 24 43 9z m-215 -31 c21 -40 5 -110 -25 -110
-25 0 -27 38 -4 55 15 11 15 14 -1 39 -16 24 -16 29 -4 37 19 12 16 13 34 -21z
m42 -12 c-3 -7 -5 -2 -5 12 0 14 2 19 5 13 2 -7 2 -19 0 -25z m207 -3 c4 -14
14 -25 22 -25 11 0 15 6 12 18 -4 15 1 17 34 14 28 -3 38 -8 34 -18 -3 -7 1
-29 9 -48 10 -22 11 -37 5 -41 -6 -3 -10 1 -10 9 0 20 -77 59 -84 42 -7 -15
-46 31 -46 55 0 28 17 23 24 -6z m-644 -14 c0 -6 -4 -13 -10 -16 -5 -3 -10
-16 -10 -28 0 -14 -3 -18 -10 -11 -7 7 -6 19 2 37 13 26 28 36 28 18z m109
-50 c0 -13 -2 -14 -6 -1 -3 8 -12 19 -19 23 -8 4 -14 16 -14 25 1 14 4 13 20
-7 11 -13 20 -31 19 -40z m355 40 c8 -13 -4 -42 -15 -35 -12 7 -12 44 0 44 6
0 12 -4 15 -9z m-668 -48 c-10 -10 -19 5 -10 18 6 11 8 11 12 0 2 -7 1 -15 -2
-18z m224 11 c0 -8 -4 -12 -10 -9 -5 3 -10 10 -10 16 0 5 5 9 10 9 6 0 10 -7
10 -16z m45 -4 c3 -5 1 -10 -4 -10 -6 0 -11 5 -11 10 0 6 2 10 4 10 3 0 8 -4
11 -10z m410 -81 c-4 -5 -10 -7 -15 -4 -13 8 -33 -24 -27 -45 3 -11 2 -20 -3
-20 -4 0 -11 11 -14 25 -3 13 -15 29 -26 35 -23 12 -27 50 -5 50 7 0 18 -7 23
-16 7 -13 13 -14 28 -6 10 6 13 12 7 12 -7 0 -13 7 -13 15 0 9 8 6 25 -11 14
-14 23 -30 20 -35z m140 41 c3 -5 1 -10 -4 -10 -6 0 -11 5 -11 10 0 6 2 10 4
10 3 0 8 -4 11 -10z m-46 -21 c-16 -10 -23 -4 -14 10 3 6 11 8 17 5 6 -4 5 -9
-3 -15z m-75 -45 c9 -3 16 -15 16 -25 0 -12 10 -23 25 -29 19 -7 25 -17 25
-40 0 -16 -4 -30 -10 -30 -5 0 -10 -7 -10 -15 0 -8 3 -15 6 -15 3 0 12 7 20
15 26 26 46 19 39 -14 -5 -23 -2 -29 14 -34 26 -6 28 -26 4 -29 -10 0 -23 -2
-29 -2 -6 -1 -19 -7 -28 -15 -13 -11 -19 -11 -32 0 -14 11 -14 13 0 21 22 12
20 38 -3 38 -12 0 -21 9 -25 25 -5 18 -13 25 -31 25 -29 0 -32 8 -8 25 13 10
14 17 5 44 -6 17 -9 38 -6 46 7 17 7 17 28 9z m105 -24 c3 -25 3 -25 -18 -6
-26 23 -27 39 -3 34 9 -2 19 -14 21 -28z m46 -20 c3 -5 2 -10 -4 -10 -5 0 -13
5 -16 10 -3 6 -2 10 4 10 5 0 13 -4 16 -10z m-259 -35 c-8 -23 -25 -9 -19 16
4 13 9 17 16 10 5 -5 7 -17 3 -26z m134 -189 c0 -8 -4 -17 -9 -21 -12 -7 -24
12 -16 25 9 15 25 12 25 -4z m70 -11 c0 -8 -6 -15 -14 -15 -17 0 -28 14 -19
24 12 12 33 6 33 -9z m36 -27 c-2 -24 -6 -32 -18 -30 -9 1 -19 -2 -23 -8 -10
-15 -25 -12 -25 6 0 11 5 14 16 10 10 -4 18 3 26 24 13 40 26 38 24 -2z
m-4006 -25 c-1 -18 -19 -35 -29 -28 -9 5 -9 10 0 21 12 15 29 19 29 7z m85 -3
c7 -11 -33 -49 -52 -50 -6 0 -13 -6 -16 -12 -4 -10 -7 -10 -18 0 -12 12 -10
16 10 30 14 10 30 22 35 29 14 15 33 16 41 3z m4030 -280 c-3 -6 -10 -10 -16
-10 -10 0 -12 33 -2 44 9 9 26 -22 18 -34z m-1355 -60 c26 -26 25 -30 -4 -30
-28 0 -40 14 -32 35 7 20 12 19 36 -5z m890 -10 c0 -5 -4 -10 -10 -10 -5 0
-10 5 -10 10 0 6 5 10 10 10 6 0 10 -4 10 -10z m600 -86 c0 -8 -4 -12 -10 -9
-5 3 -10 10 -10 16 0 5 5 9 10 9 6 0 10 -7 10 -16z m-2397 -81 c9 -9 -13 -34
-24 -27 -14 8 -11 34 4 34 8 0 17 -3 20 -7z m288 -48 c18 -49 16 -55 -18 -55
-21 0 -23 4 -23 50 0 64 19 66 41 5z m199 6 c0 -6 -4 -13 -10 -16 -5 -3 -10 1
-10 9 0 9 5 16 10 16 6 0 10 -4 10 -9z m217 -57 c-3 -3 -12 -4 -19 -1 -8 3 -5
6 6 6 11 1 17 -2 13 -5z m-429 -222 c6 -20 -22 -13 -35 8 -12 17 -11 18 9 11
12 -4 24 -13 26 -19z m-47 -38 l13 -55 10 33 c13 40 40 44 44 6 2 -16 8 -28
14 -28 7 0 8 13 5 35 -6 39 -1 44 19 18 20 -27 17 -44 -15 -95 -30 -47 -86
-84 -105 -70 -18 13 -91 32 -125 32 -17 0 -31 5 -31 10 0 6 3 10 8 10 8 0 56
38 90 72 12 12 22 32 22 43 0 21 17 45 31 45 4 0 13 -25 20 -56z m-4853 -79
c0 -25 -22 -52 -31 -38 -9 14 5 63 18 63 7 0 13 -11 13 -25z m1732 -116 c0 -6
-9 -8 -22 -3 -29 8 -31 10 -23 23 7 13 45 -4 45 -20z m-1558 -112 c-1 -8 7
-18 18 -22 11 -3 20 -10 20 -14 0 -12 -32 -37 -77 -61 -24 -12 -43 -27 -43
-33 0 -16 -71 -87 -87 -87 -22 0 -15 28 11 45 13 9 26 25 29 37 5 17 2 19 -19
15 -33 -6 -30 4 11 31 19 12 35 27 35 32 0 6 10 5 25 -2 33 -15 55 4 55 49 0
23 4 33 13 30 6 -2 11 -11 9 -20z m-32 -11 c0 -11 -19 -15 -25 -6 -3 5 1 10 9
10 9 0 16 -2 16 -4z m-452 -66 c4 -23 -15 -43 -30 -34 -10 6 -11 48 -1 58 12
12 28 0 31 -24z m260 22 c9 -6 7 -13 -10 -29 -13 -11 -31 -23 -40 -26 -10 -4
-18 -13 -18 -22 0 -8 -4 -15 -10 -15 -13 0 -13 3 2 37 11 25 45 62 58 63 3 0
11 -4 18 -8z m-121 -134 c-3 -8 -6 -5 -6 6 -1 11 2 17 5 13 3 -3 4 -12 1 -19z
m273 -22 c0 -3 -4 -8 -10 -11 -5 -3 -10 -1 -10 4 0 6 5 11 10 11 6 0 10 -2 10
-4z m-440 -13 c0 -5 -4 -15 -10 -23 -11 -18 -25 -7 -17 15 6 15 27 21 27 8z
m490 -28 c0 -8 -4 -15 -9 -15 -13 0 -22 16 -14 24 11 11 23 6 23 -9z m-374
-50 c-11 -37 -33 -52 -49 -36 -7 7 -5 17 6 29 9 10 17 23 17 28 0 6 5 15 12
22 19 19 26 -4 14 -43z m382 6 c36 -14 37 -30 5 -46 -12 -6 -28 -17 -37 -24
-24 -20 -42 0 -26 29 6 12 9 28 6 35 -5 14 4 28 13 22 3 -2 21 -9 39 -16z
m-213 -1 c3 -5 -3 -10 -15 -10 -12 0 -18 5 -15 10 3 6 10 10 15 10 5 0 12 -4
15 -10z m-351 -44 c9 -14 5 -22 -19 -42 -16 -13 -36 -24 -42 -24 -20 0 -15 28
7 50 11 11 20 25 20 31 0 15 22 6 34 -15z m626 -10 c0 -15 -18 -31 -26 -23 -7
7 7 37 17 37 5 0 9 -6 9 -14z m115 4 c-3 -5 -15 -10 -26 -10 -10 0 -19 5 -19
10 0 6 12 10 26 10 14 0 23 -4 19 -10z m285 0 c0 -5 -4 -10 -9 -10 -6 0 -13 5
-16 10 -3 6 1 10 9 10 9 0 16 -4 16 -10z m-204 -88 c-14 -14 -16 -14 -22 1 -3
10 0 24 7 33 11 14 13 14 22 -1 6 -12 4 -22 -7 -33z m-306 30 c0 -5 -11 -22
-25 -38 -14 -16 -25 -33 -25 -38 0 -5 -8 -14 -17 -21 -14 -10 -15 -16 -5 -28
10 -12 7 -17 -18 -27 -37 -15 -52 -5 -23 15 11 8 23 27 26 42 8 39 87 125 87
95z m90 4 c0 -3 -4 -8 -10 -11 -5 -3 -10 -1 -10 4 0 6 5 11 10 11 6 0 10 -2
10 -4z m-265 -16 c-3 -5 -19 -10 -35 -10 -16 0 -32 5 -35 10 -4 6 10 10 35 10
25 0 39 -4 35 -10z m435 0 c0 -5 -4 -10 -10 -10 -5 0 -10 5 -10 10 0 6 5 10
10 10 6 0 10 -4 10 -10z m273 -27 c4 -2 7 -8 7 -12 0 -8 -70 -41 -88 -41 -20
0 -13 22 8 27 15 4 19 11 14 25 -5 16 -2 18 23 12 15 -4 31 -9 36 -11z m-803
-3 c0 -5 -9 -10 -21 -10 -11 0 -17 5 -14 10 3 6 13 10 21 10 8 0 14 -4 14 -10z
m-240 -10 c0 -5 -4 -10 -10 -10 -5 0 -10 5 -10 10 0 6 5 10 10 10 6 0 10 -4
10 -10z m528 -1 c-33 -19 -18 -28 34 -22 62 7 59 -8 -7 -30 -43 -15 -45 -15
-60 6 -26 37 -16 53 35 56 11 0 11 -2 -2 -10z m1007 5 c13 -5 9 -11 -17 -30
-17 -13 -40 -24 -50 -24 -9 0 -36 -10 -58 -21 -23 -12 -44 -19 -47 -15 -4 3
-1 6 5 6 7 0 12 6 12 13 0 6 15 18 33 25 17 8 48 22 67 33 41 22 35 20 55 13z
m-741 -52 c-3 -22 -13 -43 -20 -46 -18 -7 -18 13 2 59 19 46 27 41 18 -13z
m-594 23 c-6 -8 -9 -19 -5 -25 3 -6 -3 -10 -14 -10 -24 0 -25 4 -11 31 6 10
18 19 27 19 12 0 13 -3 3 -15z m65 -45 c4 -6 -5 -10 -19 -10 -14 0 -26 5 -26
10 0 6 9 10 19 10 11 0 23 -4 26 -10z m-88 -16 c-3 -3 -12 -4 -19 -1 -8 3 -5
6 6 6 11 1 17 -2 13 -5z m343 -9 c10 -13 9 -15 -9 -15 -17 0 -21 -6 -21 -30 0
-19 -7 -33 -19 -40 -31 -16 -33 4 -6 44 14 20 25 41 25 46 0 15 16 12 30 -5z
m149 5 c-9 -5 -28 -6 -45 0 -27 8 -26 8 16 9 32 0 40 -2 29 -9z m73 -72 c-7
-7 -12 -8 -12 -2 0 14 12 26 19 19 2 -3 -1 -11 -7 -17z m-332 -8 c0 -5 -4 -10
-9 -10 -6 0 -13 5 -16 10 -3 6 1 10 9 10 9 0 16 -4 16 -10z m945 -20 c3 -5 -1
-10 -10 -10 -9 0 -13 5 -10 10 3 6 8 10 10 10 2 0 7 -4 10 -10z m110 -12 c-11
-6 -26 -18 -33 -25 -13 -13 -42 -18 -42 -7 0 23 23 40 57 42 33 2 36 1 18 -10z
m-450 -27 c3 -5 1 -12 -5 -16 -5 -3 -10 1 -10 9 0 18 6 21 15 7z m-535 -15 c0
-3 -4 -8 -10 -11 -5 -3 -10 -1 -10 4 0 6 5 11 10 11 6 0 10 -2 10 -4z m900 -5
c0 -12 -20 -25 -27 -18 -7 7 6 27 18 27 5 0 9 -4 9 -9z m-1530 -31 c0 -5 -4
-10 -10 -10 -5 0 -10 5 -10 10 0 6 5 10 10 10 6 0 10 -4 10 -10z m675 -16
c-15 -8 -32 -14 -37 -14 -15 0 2 21 26 30 32 12 41 0 11 -16z m-106 -13 c17
-11 7 -41 -12 -41 -9 0 -14 10 -14 25 0 27 4 30 26 16z m1151 -32 c-37 -10
-80 -10 -80 0 0 11 66 19 90 12 10 -4 7 -7 -10 -12z m-1555 -29 c3 -5 1 -10
-4 -10 -6 0 -11 5 -11 10 0 6 2 10 4 10 3 0 8 -4 11 -10z m330 -50 c3 -5 -1
-10 -10 -10 -9 0 -13 5 -10 10 3 6 8 10 10 10 2 0 7 -4 10 -10z m694 -40 c6 0
11 -4 11 -10 0 -14 -7 -13 -35 6 -14 9 -22 21 -18 27 4 6 11 4 18 -6 7 -10 17
-17 24 -17z m-704 -59 c5 -13 3 -13 -12 1 -10 8 -26 18 -35 21 -10 4 -18 11
-18 17 0 15 58 -20 65 -39z m215 -41 c0 -5 -23 -10 -51 -10 -31 0 -48 4 -44
10 3 6 26 10 51 10 24 0 44 -4 44 -10z m-290 -30 c0 -9 -40 -30 -56 -30 -14 0
0 22 19 30 30 12 37 12 37 0z m-253 -36 c-3 -3 -12 -4 -19 -1 -8 3 -5 6 6 6
11 1 17 -2 13 -5z m-147 -94 c0 -12 -28 -25 -36 -17 -9 9 6 27 22 27 8 0 14
-5 14 -10z m87 -66 c3 -9 -67 -47 -74 -41 -1 2 9 15 23 31 25 26 44 30 51 10z
m114 0 c-18 -8 -38 -13 -45 -11 -14 6 32 26 59 26 14 -1 10 -5 -14 -15z m-251
-34 c0 -5 -2 -10 -4 -10 -3 0 -8 5 -11 10 -3 6 -1 10 4 10 6 0 11 -4 11 -10z
m370 -85 c-7 -8 -16 -12 -21 -9 -13 8 -1 24 18 24 13 0 13 -3 3 -15z m-330
-95 c11 -7 7 -10 -17 -10 -17 0 -35 5 -38 10 -8 13 35 13 55 0z m4134 -97
c-12 -9 -15 -16 -8 -21 5 -4 15 -26 22 -49 7 -24 20 -44 30 -46 10 -3 6 -5
-10 -6 -29 -1 -48 22 -48 58 0 11 -4 23 -10 26 -6 4 -10 -14 -10 -45 0 -43 3
-53 20 -57 27 -7 25 -21 -2 -25 -18 -2 -24 -12 -29 -38 -9 -54 -23 -11 -17 51
4 41 3 49 -10 44 -12 -4 -14 2 -9 36 8 63 -12 96 -28 47 -7 -22 -8 -21 -14 7
-9 42 16 54 88 41 48 -9 51 -11 35 -23z m114 10 c-12 -3 -18 -14 -18 -33 0
-15 -7 -33 -15 -40 -12 -10 -13 -6 -8 27 6 40 18 53 43 52 11 -1 10 -3 -2 -6z
m-4438 -43 c0 -5 -2 -10 -4 -10 -3 0 -8 5 -11 10 -3 6 -1 10 4 10 6 0 11 -4
11 -10z m140 -5 c10 -12 10 -15 -3 -15 -23 0 -47 11 -47 21 0 15 37 10 50 -6z
m-90 -15 c0 -5 -9 -10 -20 -10 -11 0 -20 5 -20 10 0 6 9 10 20 10 11 0 20 -4
20 -10z m4110 -42 c0 -5 -4 -8 -10 -8 -5 0 -10 10 -10 23 0 18 2 19 10 7 5 -8
10 -18 10 -22z m-3335 -8 c3 -5 -1 -10 -9 -10 -9 0 -16 5 -16 10 0 6 4 10 9
10 6 0 13 -4 16 -10z m3411 -46 c0 -57 -11 -81 -41 -86 -18 -4 -29 0 -36 13
-7 15 -6 19 5 19 8 0 18 -5 22 -11 12 -21 25 8 26 60 2 61 23 65 24 5z m-4219
4 c-3 -8 -6 -5 -6 6 -1 11 2 17 5 13 3 -3 4 -12 1 -19z m4432 -77 c9 -6 5 -8
-13 -8 -14 0 -26 3 -26 8 0 11 21 11 39 0z m-4441 -19 c3 -9 -3 -13 -19 -10
-12 1 -24 9 -27 16 -3 9 3 13 19 10 12 -1 24 -9 27 -16z m4152 -12 c0 -5 -5
-10 -11 -10 -5 0 -7 5 -4 10 3 6 8 10 11 10 2 0 4 -4 4 -10z m293 -42 c2 -7 0
-26 -4 -43 -5 -16 -6 -38 -3 -47 3 -10 0 -18 -7 -18 -8 0 -8 -4 2 -16 16 -19
13 -71 -5 -116 -12 -27 -12 -36 -1 -51 14 -19 11 -89 -7 -152 -11 -39 -12 -83
-2 -117 3 -12 0 -18 -9 -18 -11 0 -13 7 -10 21 4 15 2 20 -6 18 -7 -3 -12 -8
-12 -12 1 -4 1 -13 1 -21 0 -7 9 -16 20 -19 11 -3 20 -11 20 -17 0 -8 -9 -10
-26 -6 -19 5 -30 2 -39 -11 -16 -22 -8 -38 11 -22 18 15 32 3 16 -13 -9 -9 -9
-15 0 -25 6 -7 7 -17 3 -21 -4 -4 -10 -1 -12 6 -8 22 -21 13 -22 -15 0 -16 0
-38 -1 -50 0 -13 -4 -23 -8 -23 -18 0 -72 386 -72 511 0 53 4 69 20 84 11 10
20 24 20 32 0 7 11 18 25 23 31 12 32 26 3 34 -17 4 -20 8 -11 17 8 8 16 8 31
0 22 -12 33 -6 25 15 -3 8 1 22 9 32 8 9 18 25 21 35 7 20 23 23 30 5z m-4563
-24 c0 -9 -5 -14 -12 -12 -18 6 -21 28 -4 28 9 0 16 -7 16 -16z m3998 -21 c2
-46 -26 -110 -51 -117 -15 -4 -17 -8 -8 -25 14 -26 14 -31 -2 -31 -8 0 -22 -9
-33 -21 -18 -20 -18 -22 -1 -34 24 -17 22 -22 -16 -29 -28 -5 -33 -10 -32 -34
0 -20 -5 -27 -20 -27 -24 0 -46 -33 -39 -57 3 -10 1 -18 -5 -18 -21 0 -92 -74
-88 -92 4 -13 -1 -18 -14 -18 -10 0 -19 -6 -19 -14 0 -19 -26 -68 -35 -66 -12
2 -25 -22 -25 -47 0 -13 -4 -23 -10 -23 -5 0 -10 23 -10 51 0 40 -3 50 -14 46
-8 -3 -17 1 -20 9 -11 28 -33 15 -28 -17 4 -31 -9 -68 -37 -102 -11 -13 -23
-16 -47 -11 -41 8 -60 -2 -43 -22 7 -8 20 -12 31 -8 11 3 30 -2 45 -11 22 -15
24 -22 20 -52 -4 -20 -14 -44 -23 -55 -17 -18 -19 -18 -55 22 -20 22 -39 40
-43 40 -12 0 -5 -23 11 -35 9 -7 13 -17 9 -23 -11 -19 -37 -14 -43 8 -3 11 -9
20 -14 20 -5 0 -9 -9 -9 -20 0 -24 -25 -27 -34 -3 -4 10 -1 20 9 26 12 6 13
12 5 22 -9 10 -3 22 26 51 30 31 34 41 25 56 -7 11 -7 19 0 23 5 4 21 24 35
46 13 21 31 39 39 39 8 0 15 5 15 12 0 6 3 9 6 5 3 -3 -1 -20 -10 -38 -20 -40
-20 -63 -1 -79 17 -14 17 -15 35 72 7 37 8 63 2 74 -7 13 -2 28 23 59 32 43
32 43 27 139 l-4 96 36 0 c40 0 43 5 20 32 -26 28 -1 52 47 44 38 -6 39 -5
145 94 12 11 30 20 42 20 11 0 23 4 26 9 4 5 23 12 44 16 20 3 48 13 62 20 39
22 47 18 48 -22z m-183 17 c3 -5 -1 -10 -10 -10 -9 0 -13 5 -10 10 3 6 8 10
10 10 2 0 7 -4 10 -10z m-3825 -133 c19 -36 31 -69 27 -73 -14 -14 -61 65 -70
118 -6 39 3 29 43 -45z m-100 54 c0 -5 3 -16 6 -25 4 -10 1 -16 -9 -16 -20 0
-30 17 -23 35 6 16 26 21 26 6z m4415 -29 c-8 -8 -25 10 -19 20 4 6 9 5 15 -3
4 -7 6 -15 4 -17z m-3980 -22 c-3 -5 -15 -10 -26 -10 -10 0 -19 5 -19 10 0 6
12 10 26 10 14 0 23 -4 19 -10z m3993 -32 c-2 -6 -10 -14 -16 -16 -7 -2 -10 2
-6 12 7 18 28 22 22 4z m-758 -24 c0 -17 -22 -14 -28 4 -2 7 3 12 12 12 9 0
16 -7 16 -16z m786 -202 c-2 -88 -8 -167 -13 -176 -7 -13 -10 -6 -11 31 -4
121 -9 146 -32 163 -29 22 -22 56 23 105 17 19 33 35 35 35 1 0 1 -71 -2 -158z
m-4516 3 c7 -9 10 -18 7 -22 -8 -7 -37 15 -37 28 0 14 16 11 30 -6z m4383 -27
c3 -11 0 -33 -7 -47 -7 -14 -14 -46 -15 -69 -1 -56 -28 -102 -58 -102 -27 0
-29 -8 -8 -24 13 -9 13 -15 3 -38 -12 -26 -41 -42 -52 -30 -3 3 -6 14 -6 26 0
11 -9 29 -20 41 -32 34 -36 79 -9 104 12 11 30 21 39 21 25 0 32 12 14 24 -14
10 -12 15 12 39 15 15 30 27 34 27 4 0 12 11 18 25 14 31 48 33 55 3z m830
-142 c4 -10 1 -13 -8 -9 -8 3 -12 9 -9 14 7 12 11 11 17 -5z m-3398 -16 c-3
-5 -11 -10 -16 -10 -6 0 -7 5 -4 10 3 6 11 10 16 10 6 0 7 -4 4 -10z m1177
-46 c-4 -43 -10 -54 -27 -54 -19 0 -20 29 0 36 10 4 13 14 9 31 -5 19 -3 24 7
21 9 -3 13 -16 11 -34z m744 -47 c-4 -44 -16 -77 -28 -77 -6 0 -8 9 -5 20 3
11 1 23 -4 26 -11 6 0 56 15 66 17 11 25 -1 22 -35z m464 -3 c0 -14 -31 -20
-43 -7 -8 8 25 33 35 27 5 -3 8 -12 8 -20z m520 16 c0 -5 -4 -10 -9 -10 -6 0
-13 5 -16 10 -3 6 1 10 9 10 9 0 16 -4 16 -10z m-520 -104 c-15 -15 -22 -1
-14 30 l7 28 9 -24 c5 -14 5 -27 -2 -34z m730 -66 c0 -5 -4 -10 -10 -10 -5 0
-10 5 -10 10 0 6 5 10 10 10 6 0 10 -4 10 -10z m-1170 -22 c0 -19 -2 -20 -10
-8 -13 19 -13 30 0 30 6 0 10 -10 10 -22z m-318 -25 c3 -21 8 -47 12 -58 7
-19 7 -19 -8 -1 -9 11 -21 16 -32 12 -12 -5 -15 -2 -10 10 3 8 6 29 6 45 0 44
27 37 32 -8z m90 -19 c10 -37 3 -55 -17 -48 -10 4 -12 10 -6 18 6 7 6 17 1 26
-14 21 -12 42 2 38 7 -3 16 -18 20 -34z m143 -2 c0 -18 -20 -15 -23 4 -3 10 1
15 10 12 7 -3 13 -10 13 -16z m-305 -2 c0 -5 -4 -10 -10 -10 -5 0 -10 5 -10
10 0 6 5 10 10 10 6 0 10 -4 10 -10z m0 -46 c0 -14 -4 -23 -10 -19 -5 3 -10
15 -10 26 0 10 5 19 10 19 6 0 10 -12 10 -26z m1496 -42 c-9 -8 -26 10 -26 26
1 15 2 15 15 -2 8 -11 13 -21 11 -24z m-1416 -27 c0 -8 -4 -15 -10 -15 -5 0
-10 7 -10 15 0 8 5 15 10 15 6 0 10 -7 10 -15z m150 5 c0 -5 -4 -10 -10 -10
-5 0 -10 5 -10 10 0 6 5 10 10 10 6 0 10 -4 10 -10z m1610 -90 c0 -5 -4 -10
-10 -10 -5 0 -10 5 -10 10 0 6 5 10 10 10 6 0 10 -4 10 -10z m-55 -115 c19
-15 19 -16 -9 -43 l-27 -27 13 29 c10 23 10 30 0 34 -13 4 -17 22 -4 22 4 0
16 -7 27 -15z m-3080 -35 c3 -5 1 -10 -4 -10 -6 0 -11 5 -11 10 0 6 2 10 4 10
3 0 8 -4 11 -10z m45 -24 c0 -3 -4 -8 -10 -11 -5 -3 -10 -1 -10 4 0 6 5 11 10
11 6 0 10 -2 10 -4z m3507 -78 c-3 -8 -6 -5 -6 6 -1 11 2 17 5 13 3 -3 4 -12
1 -19z m-419 -30 c-1 -18 -9 -44 -19 -57 -25 -32 -24 -46 8 -75 30 -28 24 -48
-8 -28 -19 12 -20 11 -14 -21 6 -30 4 -35 -16 -40 -19 -5 -21 -8 -9 -23 12
-14 12 -18 0 -28 -8 -6 -16 -22 -18 -35 -1 -13 -14 -35 -28 -48 -16 -15 -23
-30 -19 -41 3 -12 -2 -26 -15 -37 -19 -18 -20 -18 -20 3 0 12 5 22 11 22 5 0
7 5 4 10 -9 15 4 68 20 84 8 8 16 41 18 74 5 69 12 84 35 80 14 -3 16 5 14 45
-3 29 0 47 7 47 6 0 11 4 11 10 0 10 33 90 37 90 1 0 1 -15 1 -32z m337 -39
c10 -15 -1 -23 -20 -15 -9 3 -13 10 -10 16 8 13 22 13 30 -1z m-329 -67 c-22
-5 -30 3 -21 18 5 8 11 7 22 -2 15 -12 14 -13 -1 -16z m-3486 -282 c0 -5 -8
-10 -17 -10 -17 -1 -17 -2 -2 -13 15 -12 15 -14 -2 -36 -11 -13 -19 -32 -19
-42 0 -10 -6 -19 -14 -19 -22 0 -30 -19 -11 -26 9 -4 21 1 29 11 7 10 18 15
25 11 7 -5 26 9 50 35 38 43 68 47 56 8 -4 -11 -2 -26 4 -33 11 -13 4 -56 -10
-56 -15 0 -10 -24 11 -50 17 -21 18 -35 13 -93 -3 -38 -14 -85 -25 -105 -10
-20 -18 -50 -18 -67 0 -58 -11 -59 -91 -14 -141 80 -429 274 -429 290 0 9 48
29 70 29 10 0 22 -5 25 -10 5 -8 11 -8 19 0 14 11 106 2 106 -10 0 -4 12 -16
26 -25 l27 -17 -6 30 c-5 25 -2 32 13 37 10 3 25 22 32 41 6 18 17 34 23 34 6
0 19 17 30 37 11 21 28 45 38 55 18 19 47 24 47 8z m3680 -86 c0 -8 -4 -12
-10 -9 -5 3 -10 10 -10 16 0 5 5 9 10 9 6 0 10 -7 10 -16z m50 -24 c0 -5 -8
-10 -17 -10 -15 0 -16 2 -3 10 19 12 20 12 20 0z m-45 -20 c3 -5 1 -10 -4 -10
-6 0 -11 5 -11 10 0 6 2 10 4 10 3 0 8 -4 11 -10z m-2360 -189 c3 -5 1 -12 -5
-16 -5 -3 -10 1 -10 9 0 18 6 21 15 7z m5 -118 c0 -34 -11 -53 -31 -53 -22 0
-22 -2 -8 41 6 19 13 41 15 49 5 13 6 13 14 0 6 -8 10 -25 10 -37z m2994 -212
c18 -33 10 -49 -11 -23 -13 16 -14 15 -10 -5 7 -30 -31 -43 -50 -17 -18 24
-17 45 2 38 10 -4 15 0 15 15 0 32 36 27 54 -8z m-224 -36 c0 -8 -4 -15 -10
-15 -5 0 -10 7 -10 15 0 8 5 15 10 15 6 0 10 -7 10 -15z m-40 -5 c0 -5 -2 -10
-4 -10 -3 0 -8 5 -11 10 -3 6 -1 10 4 10 6 0 11 -4 11 -10z m-3399 -56 c7 -21
6 -31 -7 -45 -10 -11 -23 -19 -29 -19 -26 0 -105 42 -105 55 0 17 35 20 45 5
11 -18 35 -11 35 10 0 32 48 27 61 -6z m3329 -24 c0 -5 -4 -10 -10 -10 -5 0
-10 5 -10 10 0 6 5 10 10 10 6 0 10 -4 10 -10z m-2696 -195 c9 -24 -4 -45 -30
-45 -18 0 -22 4 -17 18 14 40 37 53 47 27z"/>
<path d="M1885 8460 c-3 -6 1 -7 9 -4 18 7 21 14 7 14 -6 0 -13 -4 -16 -10z"/>
<path d="M2723 8047 c15 -6 25 -17 23 -23 -9 -24 45 -47 72 -31 22 14 15 40
-10 34 -13 -4 -31 1 -46 14 -14 10 -34 19 -46 18 -18 -1 -17 -3 7 -12z"/>
<path d="M2602 7991 c-16 -10 0 -25 36 -34 26 -6 29 10 5 29 -21 16 -24 16
-41 5z"/>
<path d="M2690 7990 c0 -5 7 -10 15 -10 8 0 15 5 15 10 0 6 -7 10 -15 10 -8 0
-15 -4 -15 -10z"/>
<path d="M2265 7980 c-3 -5 3 -10 14 -10 11 0 23 5 26 10 3 6 -3 10 -14 10
-11 0 -23 -4 -26 -10z"/>
<path d="M2780 7840 c0 -5 7 -10 15 -10 8 0 15 5 15 10 0 6 -7 10 -15 10 -8 0
-15 -4 -15 -10z"/>
<path d="M2890 7770 c0 -5 6 -10 14 -10 8 0 18 5 21 10 3 6 -3 10 -14 10 -12
0 -21 -4 -21 -10z"/>
<path d="M2875 7699 c-10 -15 3 -25 16 -12 7 7 7 13 1 17 -6 3 -14 1 -17 -5z"/>
<path d="M1265 7279 c-4 -6 -1 -15 6 -20 21 -13 31 -11 27 8 -4 20 -24 28 -33
12z"/>
<path d="M2952 7278 c6 -16 36 -34 44 -25 9 9 -15 37 -33 37 -8 0 -13 -5 -11
-12z"/>
<path d="M2935 7180 c10 -16 45 -32 45 -20 0 5 -7 10 -15 10 -8 0 -15 5 -15
10 0 6 -5 10 -11 10 -5 0 -7 -4 -4 -10z"/>
<path d="M1155 7170 c3 -5 8 -10 11 -10 2 0 4 5 4 10 0 6 -5 10 -11 10 -5 0
-7 -4 -4 -10z"/>
<path d="M1280 7150 c0 -16 5 -30 10 -30 6 0 10 14 10 30 0 17 -4 30 -10 30
-5 0 -10 -13 -10 -30z"/>
<path d="M2954 7111 c21 -23 26 -26 26 -11 0 5 -10 15 -22 21 -23 12 -23 12
-4 -10z"/>
<path d="M1690 7010 c0 -13 7 -20 20 -20 11 0 20 3 20 8 0 4 -9 13 -20 20 -18
11 -20 10 -20 -8z"/>
<path d="M3090 6940 c0 -5 7 -10 16 -10 8 0 12 5 9 10 -3 6 -10 10 -16 10 -5
0 -9 -4 -9 -10z"/>
<path d="M1260 6487 c0 -8 11 -19 25 -25 25 -11 34 -32 15 -32 -5 0 -10 -5
-10 -11 0 -6 8 -8 19 -4 11 3 29 0 40 -7 17 -10 25 -10 41 0 39 24 43 3 4 -23
-20 -13 -28 -14 -40 -4 -8 6 -17 9 -20 7 -8 -9 65 -50 79 -45 7 3 5 6 -5 6
-25 1 -23 21 2 21 11 0 20 5 20 10 0 6 5 10 12 10 9 0 9 -3 0 -12 -18 -18 -14
-28 11 -28 17 0 19 -2 7 -10 -11 -7 -3 -14 34 -29 26 -12 52 -21 57 -21 14 0
11 38 -3 47 -7 4 -18 17 -24 27 -6 11 -23 23 -38 27 -31 9 -58 28 -52 38 2 3
-8 7 -22 7 -59 3 -71 8 -60 21 11 14 6 16 -28 14 -12 -1 -24 5 -27 13 -8 19
-37 21 -37 3z"/>
<path d="M1573 6303 c-4 -11 3 -23 20 -37 15 -12 27 -27 27 -34 0 -22 27 -13
38 13 21 46 12 71 -16 43 -10 -10 -14 -8 -18 10 -7 26 -42 30 -51 5z"/>
<path d="M642 5940 l-2 -360 25 -12 c31 -14 39 -7 36 34 -2 18 -3 44 -3 58 0
262 -1 353 -3 395 -2 28 -5 68 -6 91 -3 45 17 104 35 104 16 0 57 -63 55 -86
-4 -37 1 -74 10 -74 4 0 21 18 36 40 22 31 25 44 17 52 -7 7 -12 22 -12 35 0
27 30 32 53 8 13 -13 16 -13 21 0 3 9 17 20 32 25 14 6 24 16 21 23 -3 9 -39
12 -133 13 -71 0 -141 4 -155 8 l-26 7 -1 -361z"/>
<path d="M863 6174 c-8 -21 13 -42 28 -27 13 13 5 43 -11 43 -6 0 -13 -7 -17
-16z"/>
<path d="M885 6060 c-3 -6 -17 -7 -31 -4 -19 5 -24 2 -24 -12 0 -19 3 -20 98
-15 29 1 28 15 -3 29 -31 14 -32 15 -40 2z"/>
<path d="M3300 5982 c-25 -9 -38 -18 -29 -19 9 -2 38 5 65 16 58 23 29 26 -36
3z"/>
<path d="M3465 5880 c-3 -5 3 -10 14 -10 11 0 23 5 26 10 3 6 -3 10 -14 10
-11 0 -23 -4 -26 -10z"/>
<path d="M850 5830 c-12 -8 -9 -10 13 -10 15 0 27 5 27 10 0 13 -20 13 -40 0z"/>
<path d="M2133 5604 c-3 -8 -12 -13 -19 -10 -8 3 -14 1 -14 -4 0 -6 5 -10 11
-10 17 0 49 20 49 30 0 16 -20 11 -27 -6z"/>
<path d="M2040 5528 c-19 -27 -20 -30 -3 -15 11 9 24 17 30 17 6 0 16 7 23 15
10 12 9 15 -7 15 -11 0 -30 -15 -43 -32z"/>
<path d="M660 5531 c0 -11 26 -22 34 -14 3 3 3 10 0 14 -7 12 -34 11 -34 0z"/>
<path d="M655 5490 c-8 -12 20 -24 35 -15 5 3 10 10 10 16 0 12 -37 12 -45 -1z"/>
<path d="M2101 5464 c0 -11 3 -14 6 -6 3 7 2 16 -1 19 -3 4 -6 -2 -5 -13z"/>
<path d="M2075 5411 c-6 -11 13 -26 22 -17 3 3 12 1 20 -6 10 -8 17 -8 25 0 9
9 7 12 -9 12 -12 0 -25 5 -28 10 -8 13 -22 13 -30 1z"/>
<path d="M2025 5380 c-3 -5 -2 -10 4 -10 5 0 13 5 16 10 3 6 2 10 -4 10 -5 0
-13 -4 -16 -10z"/>
<path d="M1603 5350 c-11 -16 -10 -21 6 -30 20 -10 40 3 22 15 -6 3 -8 12 -4
20 8 22 -10 18 -24 -5z"/>
<path d="M1676 5333 c4 -10 7 -30 6 -45 -1 -30 13 -46 21 -24 10 26 -5 86 -20
86 -11 0 -13 -5 -7 -17z"/>
<path d="M1800 5309 c0 -5 5 -7 10 -4 6 3 10 8 10 11 0 2 -4 4 -10 4 -5 0 -10
-5 -10 -11z"/>
<path d="M2092 5284 c4 -21 22 -23 26 -1 2 10 -3 17 -13 17 -10 0 -15 -6 -13
-16z"/>
<path d="M2019 5264 c-11 -13 -11 -18 -1 -21 6 -3 12 -13 12 -24 0 -11 7 -19
16 -19 11 0 14 9 12 37 -3 41 -18 52 -39 27z"/>
<path d="M1675 5201 c-4 -23 -2 -48 5 -60 15 -28 19 -26 17 6 -2 22 3 29 21
31 27 4 29 19 2 27 -11 3 -20 13 -20 21 0 30 -19 12 -25 -25z"/>
<path d="M2167 5194 c-12 -12 4 -24 31 -24 25 0 25 1 6 15 -21 16 -28 18 -37
9z"/>
<path d="M2295 5154 c-19 -16 -19 -16 5 -9 31 9 50 25 30 25 -8 0 -24 -8 -35
-16z"/>
<path d="M2870 5146 c0 -8 -9 -18 -20 -21 -39 -12 -23 -33 22 -29 49 5 61 13
29 21 -16 4 -21 11 -18 24 3 11 1 19 -4 19 -5 0 -9 -6 -9 -14z"/>
<path d="M1556 5112 c-4 -18 -5 -36 -2 -39 11 -12 17 5 14 39 l-3 33 -9 -33z"/>
<path d="M2289 5093 c-13 -15 -12 -15 9 -4 23 12 28 21 13 21 -5 0 -15 -7 -22
-17z"/>
<path d="M1527 5033 c-10 -9 -9 -23 2 -23 5 0 11 7 15 15 5 15 -5 20 -17 8z"/>
<path d="M2676 4430 c7 -7 32 -8 75 -2 l64 10 -74 1 c-52 1 -72 -2 -65 -9z"/>
<path d="M1350 4150 l-25 -8 28 -1 c15 -1 27 4 27 9 0 6 -1 10 -2 9 -2 -1 -14
-5 -28 -9z"/>
<path d="M1183 3813 c9 -2 23 -2 30 0 6 3 -1 5 -18 5 -16 0 -22 -2 -12 -5z"/>
<path d="M1168 3763 c7 -3 16 -2 19 1 4 3 -2 6 -13 5 -11 0 -14 -3 -6 -6z"/>
<path d="M1048 3373 c7 -3 16 -2 19 1 4 3 -2 6 -13 5 -11 0 -14 -3 -6 -6z"/>
<path d="M8876 7282 c-3 -6 -1 -14 5 -17 15 -10 25 3 12 16 -7 7 -13 7 -17 1z"/>
<path d="M8960 7111 c0 -5 5 -13 10 -16 6 -3 10 -2 10 4 0 5 -4 13 -10 16 -5
3 -10 2 -10 -4z"/>
<path d="M8931 6940 c-1 -45 2 -60 9 -50 12 18 12 68 0 95 -6 14 -9 0 -9 -45z"/>
<path d="M8923 6837 c-8 -16 -9 -29 -3 -32 12 -8 23 17 18 41 -2 14 -6 12 -15
-9z"/>
<path d="M8908 6635 c-23 -31 -23 -35 6 -35 28 0 42 28 24 46 -10 10 -16 8
-30 -11z"/>
<path d="M8892 6540 c0 -17 4 -28 9 -25 11 8 12 55 1 55 -5 0 -9 -14 -10 -30z"/>
<path d="M8848 6518 c-8 -24 12 -103 30 -117 15 -12 14 -13 -10 -7 -32 7 -50
-13 -19 -21 12 -3 28 -20 35 -37 13 -29 13 -28 10 33 -2 36 -8 69 -14 75 -5 5
-10 27 -10 48 0 36 -14 52 -22 26z"/>
<path d="M8810 6340 c0 -5 7 -10 15 -10 8 0 15 5 15 10 0 6 -7 10 -15 10 -8 0
-15 -4 -15 -10z"/>
<path d="M8890 6238 c0 -9 5 -20 11 -23 17 -11 18 -2 3 19 -12 17 -14 17 -14
4z"/>
<path d="M7646 5993 c-4 -16 -18 -66 -33 -111 -21 -68 -24 -88 -15 -103 18
-28 16 -44 -3 -29 -21 18 -31 5 -19 -27 11 -32 57 -49 74 -27 7 7 9 17 6 22
-3 5 1 23 9 39 11 22 14 57 11 144 -4 129 -3 119 -15 119 -5 0 -12 -12 -15
-27z"/>
<path d="M7532 5786 c-14 -39 -10 -58 9 -39 6 6 9 25 7 44 l-3 33 -13 -38z"/>
<path d="M7335 5620 c-4 -6 -3 -16 3 -22 6 -6 12 -6 17 2 4 6 3 16 -3 22 -6 6
-12 6 -17 -2z"/>
<path d="M9090 5539 c0 -5 5 -7 10 -4 6 3 10 8 10 11 0 2 -4 4 -10 4 -5 0 -10
-5 -10 -11z"/>
<path d="M9055 5240 c-3 -5 -1 -10 4 -10 6 0 11 5 11 10 0 6 -2 10 -4 10 -3 0
-8 -4 -11 -10z"/>
<path d="M7598 5168 c-2 -68 2 -90 23 -116 10 -14 19 -33 19 -43 0 -24 68 -39
81 -18 12 20 11 109 -1 109 -6 0 -15 12 -20 26 l-10 26 -35 -21 -35 -20 -6 25
c-3 13 -4 36 -2 49 3 14 1 25 -3 25 -5 0 -10 -19 -11 -42z"/>
<path d="M7870 5115 c-7 -8 -23 -15 -36 -15 -13 0 -28 -9 -34 -20 -15 -28 4
-60 35 -60 14 0 26 -7 30 -18 9 -31 75 37 75 77 0 44 -45 67 -70 36z"/>
<path d="M7827 4922 c-13 -15 -16 -25 -10 -37 8 -14 11 -15 22 -1 7 8 11 25 9
37 l-3 21 -18 -20z"/>
<path d="M7830 4635 c0 -4 22 -57 44 -104 6 -13 11 -40 11 -60 0 -32 2 -36 28
-38 24 -2 27 0 17 12 -7 9 -9 29 -5 53 9 58 -10 100 -63 130 -23 13 -32 15
-32 7z"/>
<path d="M7501 4458 c-62 -72 -71 -84 -71 -94 0 -11 -87 -109 -190 -214 -30
-30 -66 -70 -80 -89 -35 -46 -108 -121 -119 -121 -14 0 -141 -126 -141 -139 0
-22 -68 -131 -81 -131 -5 0 -9 9 -9 19 0 42 -18 27 -53 -43 -21 -40 -37 -81
-37 -92 0 -10 14 -39 30 -64 16 -25 30 -49 30 -53 0 -5 9 -20 20 -34 11 -14
20 -36 20 -48 0 -12 7 -39 15 -59 9 -20 20 -87 26 -149 12 -139 16 -157 32
-157 20 0 38 63 31 108 -5 31 -2 49 14 74 18 30 19 42 11 137 -4 57 -9 104
-11 105 -2 1 -30 24 -63 52 -33 27 -72 58 -87 67 -16 10 -28 26 -28 38 0 20 3
19 32 -10 36 -35 43 -37 52 -15 6 17 27 9 25 -9 -3 -27 3 -36 32 -46 43 -15
49 -14 49 7 0 9 12 40 26 67 13 28 34 83 44 124 11 41 31 93 44 116 23 39 89
95 112 95 12 0 94 67 172 140 58 55 83 65 147 57 54 -6 113 -51 114 -86 1 -16
5 -21 16 -17 21 8 19 -11 -4 -41 -39 -49 0 -78 92 -68 l62 7 66 76 c36 43 74
91 85 107 10 17 29 42 42 56 13 15 37 45 53 68 l31 41 -29 0 c-19 0 -42 12
-69 36 -21 20 -48 40 -59 45 -11 5 -33 18 -50 29 -16 11 -50 30 -75 41 -25 12
-77 37 -117 55 -86 40 -125 43 -152 12z m221 -83 c35 -20 80 -43 101 -52 28
-12 37 -22 37 -40 0 -32 -19 -29 -94 12 -35 19 -69 35 -75 35 -22 0 -64 47
-58 64 9 23 19 20 89 -19z m-230 -39 c-2 -9 4 -19 12 -22 21 -8 10 -24 -15
-24 -10 0 -19 -4 -19 -9 0 -14 61 -56 100 -70 33 -11 37 -10 58 15 14 16 21
33 16 43 -22 54 -13 64 31 35 29 -19 32 -34 8 -34 -14 0 -15 -2 -4 -9 8 -5 10
-14 6 -21 -5 -7 -10 -31 -12 -53 -2 -21 -6 -43 -9 -48 -3 -5 -41 -8 -85 -7
-61 1 -86 5 -104 20 -23 18 -24 18 -30 -2 -7 -22 -13 -24 -35 -10 -12 7 -12
12 4 29 15 16 16 23 5 43 -6 13 -18 27 -25 31 -21 12 -17 45 6 52 11 3 25 15
30 26 6 10 17 19 25 19 8 0 15 5 15 11 0 6 6 9 13 6 6 -2 11 -12 9 -21z m437
-87 c20 -7 30 -16 27 -25 -3 -7 0 -14 6 -16 7 -3 9 -12 5 -22 -6 -15 -10 -16
-22 -6 -8 6 -19 9 -26 5 -6 -4 -15 -2 -20 6 -6 10 -11 6 -18 -15 -16 -41 -45
-31 -49 17 -2 27 1 37 11 37 8 0 17 7 21 15 6 18 22 19 65 4z m-5 -98 c3 -5
-3 -11 -14 -14 -20 -5 -26 3 -13 16 9 10 21 9 27 -2z m-622 -23 c-7 -7 -12 -8
-12 -2 0 14 12 26 19 19 2 -3 -1 -11 -7 -17z m63 3 c6 -11 -33 -26 -43 -16 -4
3 0 10 8 15 19 12 27 12 35 1z m-112 -71 c-5 -67 -7 -70 -28 -63 -11 3 -31 6
-43 5 l-24 -2 26 31 c14 17 26 37 26 45 0 10 8 14 23 12 17 -2 22 -9 20 -28z
m562 9 c10 -15 -1 -23 -20 -15 -9 3 -13 10 -10 16 8 13 22 13 30 -1z m-57 -37
c3 -9 -3 -13 -19 -10 -12 1 -24 9 -27 16 -3 9 3 13 19 10 12 -1 24 -9 27 -16z
m47 -2 c3 -5 -3 -10 -15 -10 -12 0 -18 5 -15 10 3 6 10 10 15 10 5 0 12 -4 15
-10z"/>
<path d="M6534 4446 c-6 -7 -15 -23 -19 -37 -4 -13 -16 -40 -26 -59 -21 -38
-25 -70 -8 -70 15 0 71 126 67 153 -2 19 -6 22 -14 13z"/>
<path d="M8550 4215 c0 -14 -5 -35 -11 -46 -13 -25 -3 -59 18 -59 8 0 13 -6
11 -12 -6 -16 -50 -26 -150 -34 -72 -5 -78 -8 -78 -27 0 -12 9 -33 19 -46 17
-23 25 -24 228 -34 183 -9 217 -9 259 5 51 16 70 44 40 60 -9 5 -13 15 -9 25
5 13 2 15 -18 10 -13 -3 -72 -9 -130 -13 -101 -6 -108 -5 -129 16 -18 18 -21
29 -16 68 7 52 -4 104 -22 110 -7 2 -12 -7 -12 -23z"/>
<path d="M8351 4193 c-6 -10 -11 -12 -11 -5 0 13 -20 17 -20 3 0 -11 47 -61
58 -61 15 0 22 41 11 62 -12 23 -25 23 -38 1z"/>
<path d="M7958 4058 c-11 -20 -13 -185 -3 -196 2 -2 13 2 25 8 21 11 21 12 4
31 -15 17 -16 23 -5 40 9 15 9 24 1 34 -8 10 -7 23 4 50 22 53 0 80 -26 33z"/>
<path d="M5890 4035 c1 -26 2 -28 11 -12 8 14 8 22 0 30 -8 8 -11 3 -11 -18z"/>
<path d="M7956 3835 c4 -8 15 -15 25 -15 23 0 25 16 3 24 -25 10 -34 7 -28 -9z"/>
<path d="M7947 3793 c-3 -5 1 -17 9 -28 14 -18 14 -18 14 2 0 23 -15 39 -23
26z"/>
<path d="M7950 3730 c0 -5 12 -10 28 -10 21 0 24 2 12 10 -20 13 -40 13 -40 0z"/>
<path d="M8785 3680 c3 -5 8 -10 11 -10 2 0 4 5 4 10 0 6 -5 10 -11 10 -5 0
-7 -4 -4 -10z"/>
<path d="M5760 3560 c0 -5 5 -10 10 -10 6 0 10 5 10 10 0 6 -4 10 -10 10 -5 0
-10 -4 -10 -10z"/>
<path d="M5716 3425 c-18 -14 -16 -52 3 -40 15 8 24 -14 12 -29 -18 -21 -1
-26 20 -5 24 24 24 41 2 68 -16 18 -20 19 -37 6z"/>
<path d="M6075 3154 c-16 -12 -18 -18 -7 -34 16 -27 16 -28 -13 -22 -25 4 -25
3 -13 -23 12 -27 12 -27 26 -6 8 11 24 21 36 21 21 1 21 1 1 16 -16 12 -18 18
-7 34 21 34 11 40 -23 14z"/>
<path d="M8051 2963 c-17 -21 -38 -52 -46 -69 -19 -40 -87 -114 -104 -114 -32
0 2 -26 70 -54 64 -27 75 -36 84 -64 l9 -32 161 2 160 3 3 69 c3 59 0 71 -15
80 -10 6 -20 11 -23 12 -3 0 -12 3 -20 6 -8 3 -44 11 -80 18 -35 6 -77 18 -93
26 -38 20 -69 52 -57 59 17 10 12 48 -5 41 -10 -4 -15 1 -15 14 0 11 7 20 15
20 8 0 15 5 15 10 0 22 -30 8 -59 -27z"/>
<path d="M5840 2931 c0 -5 5 -13 10 -16 6 -3 10 -2 10 4 0 5 -4 13 -10 16 -5
3 -10 2 -10 -4z"/>
<path d="M6973 2928 c-25 -12 -32 -31 -8 -22 8 4 15 2 15 -4 0 -6 -6 -12 -12
-15 -10 -3 -10 -13 2 -46 8 -24 20 -43 25 -43 6 0 16 -4 23 -10 13 -11 16 0
12 57 -2 34 -21 95 -30 94 -3 0 -15 -5 -27 -11z"/>
<path d="M5830 2851 c0 -5 5 -13 10 -16 6 -3 10 -2 10 4 0 5 -4 13 -10 16 -5
3 -10 2 -10 -4z"/>
<path d="M5800 2811 c0 -6 5 -13 10 -16 6 -3 10 1 10 9 0 9 -4 16 -10 16 -5 0
-10 -4 -10 -9z"/>
<path d="M5825 2749 c-6 -19 16 -48 38 -49 4 0 7 -9 7 -20 0 -21 14 -27 25
-11 6 10 -32 51 -48 51 -4 0 -6 9 -2 19 3 11 1 22 -4 25 -5 4 -13 -3 -16 -15z"/>
<path d="M5905 2740 c-3 -5 -13 -6 -23 -3 -15 6 -15 5 -3 -11 10 -11 16 -13
21 -6 4 6 18 9 31 7 13 -2 18 -2 12 0 -7 3 -13 9 -13 14 0 12 -17 12 -25 -1z"/>
<path d="M5800 2690 c0 -5 5 -10 10 -10 6 0 10 5 10 10 0 6 -4 10 -10 10 -5 0
-10 -4 -10 -10z"/>
<path d="M6665 2660 c-4 -11 -17 -32 -31 -47 -13 -14 -21 -29 -19 -34 7 -11
75 30 75 44 0 7 3 22 6 35 8 29 -22 31 -31 2z"/>
<path d="M5790 2530 c0 -5 4 -10 9 -10 6 0 13 5 16 10 3 6 -1 10 -9 10 -9 0
-16 -4 -16 -10z"/>
<path d="M8600 2460 c8 -5 35 -9 60 -9 37 1 41 2 20 9 -38 12 -99 12 -80 0z"/>
<path d="M6690 2386 c0 -14 5 -28 10 -31 6 -4 10 7 10 24 0 17 -4 31 -10 31
-5 0 -10 -11 -10 -24z"/>
<path d="M6640 2316 c0 -13 39 -40 47 -32 3 3 3 11 0 19 -7 18 -47 29 -47 13z"/>
<path d="M6131 2261 c-10 -6 -10 -10 -1 -16 13 -8 24 -1 19 14 -3 6 -10 7 -18
2z"/>
<path d="M6957 2103 c-4 -3 -7 -11 -7 -17 0 -6 5 -5 12 2 6 6 9 14 7 17 -3 3
-9 2 -12 -2z"/>
<path d="M6950 1990 c0 -5 5 -10 10 -10 6 0 10 5 10 10 0 6 -4 10 -10 10 -5 0
-10 -4 -10 -10z"/>
<path d="M7220 1922 c0 -18 5 -32 10 -32 6 0 8 11 4 28 -10 39 -14 40 -14 4z"/>
<path d="M7235 1717 c0 -100 -5 -162 -13 -183 -7 -16 -14 -52 -15 -80 -2 -46
-4 -50 -34 -59 -38 -11 -45 -28 -8 -19 21 5 25 3 25 -14 0 -12 -3 -23 -7 -25
-5 -3 -6 -28 -4 -57 3 -44 6 -51 21 -47 19 5 35 -17 24 -34 -3 -5 0 -9 5 -9
12 0 15 19 12 63 -1 15 10 53 25 85 15 31 26 62 26 67 -1 6 -4 44 -7 85 -13
196 -26 309 -37 343 -12 32 -13 20 -13 -116z"/>
<path d="M6395 1430 c-3 -5 -1 -10 4 -10 6 0 11 5 11 10 0 6 -2 10 -4 10 -3 0
-8 -4 -11 -10z"/>
<path d="M7412 1199 c-24 -9 -39 -35 -27 -47 3 -4 11 1 16 11 6 9 19 17 29 17
11 0 20 4 20 9 0 16 -14 19 -38 10z"/>
<path d="M7453 1175 c-9 -25 4 -29 17 -6 7 15 7 21 0 21 -6 0 -13 -7 -17 -15z"/>
<path d="M7065 1170 c-3 -5 -1 -10 4 -10 6 0 11 5 11 10 0 6 -2 10 -4 10 -3 0
-8 -4 -11 -10z"/>
<path d="M7145 1170 c-4 -7 2 -22 14 -34 l22 -21 -3 29 c-3 31 -21 45 -33 26z"/>
<path d="M7040 1103 c0 -7 4 -13 9 -13 5 0 14 -13 20 -30 5 -16 13 -30 16 -30
18 0 45 23 45 38 -1 15 -2 15 -15 -3 -15 -18 -16 -18 -45 15 -16 19 -29 29
-30 23z"/>
<path d="M7125 1100 c3 -5 8 -10 11 -10 2 0 4 5 4 10 0 6 -5 10 -11 10 -5 0
-7 -4 -4 -10z"/>
<path d="M7036 1043 c-11 -11 -6 -23 9 -23 8 0 15 4 15 9 0 13 -16 22 -24 14z"/>
<path d="M6670 935 c0 -9 6 -12 15 -9 8 4 15 10 15 15 0 5 -7 9 -15 9 -8 0
-15 -7 -15 -15z"/>
<path d="M7096 906 c3 -8 0 -17 -5 -21 -22 -13 -1 -23 24 -12 31 15 31 21 0
35 -19 9 -23 9 -19 -2z"/>
<path d="M6767 893 c-4 -3 -7 -11 -7 -17 0 -6 5 -5 12 2 6 6 9 14 7 17 -3 3
-9 2 -12 -2z"/>
<path d="M7000 896 c0 -2 7 -9 15 -16 13 -11 14 -10 9 4 -5 14 -24 23 -24 12z"/>
<path d="M8617 6524 c-8 -8 1 -24 14 -24 5 0 9 7 9 15 0 15 -12 20 -23 9z"/>
<path d="M6810 5330 c0 -5 7 -10 16 -10 8 0 12 5 9 10 -3 6 -10 10 -16 10 -5
0 -9 -4 -9 -10z"/>
<path d="M6775 5320 c3 -5 11 -10 16 -10 6 0 7 5 4 10 -3 6 -11 10 -16 10 -6
0 -7 -4 -4 -10z"/>
<path d="M5615 2940 c3 -5 8 -10 11 -10 2 0 4 5 4 10 0 6 -5 10 -11 10 -5 0
-7 -4 -4 -10z"/>
<path d="M5070 3210 c0 -5 5 -10 10 -10 6 0 10 5 10 10 0 6 -4 10 -10 10 -5 0
-10 -4 -10 -10z"/>
<path d="M4666 2958 c-3 -13 -6 -51 -6 -85 0 -49 3 -63 15 -63 11 0 15 11 15
40 0 22 5 40 10 40 6 0 10 5 10 10 0 6 -7 10 -16 10 -13 0 -15 7 -10 35 8 38
-8 49 -18 13z"/>
<path d="M4515 2470 c-3 -6 1 -13 9 -16 9 -3 16 -12 16 -19 0 -7 7 -15 15 -19
11 -4 15 1 15 17 0 37 -39 63 -55 37z"/>
</g>
</svg>
