<?xml version="1.0" standalone="no"?>
<!DOCTYPE svg PUBLIC "-//W3C//DTD SVG 20010904//EN"
 "http://www.w3.org/TR/2001/REC-SVG-20010904/DTD/svg10.dtd">
<svg version="1.0" xmlns="http://www.w3.org/2000/svg"
 width="1000.000000pt" height="1000.000000pt" viewBox="0 0 1000.000000 1000.000000"
 preserveAspectRatio="xMidYMid meet">
<metadata>
Created by potrace 1.11, written by Peter Selinger 2001-2013
</metadata>
<g transform="translate(0.000000,1000.000000) scale(0.100000,-0.100000)"
fill="#000000" stroke="none">
<path d="M4738 9995 c-2 -1 -52 -6 -113 -9 -60 -4 -119 -9 -130 -11 -11 -2
-51 -7 -90 -10 -201 -18 -554 -89 -816 -166 -654 -191 -1286 -530 -1804 -968
-286 -242 -557 -529 -791 -836 -189 -248 -397 -598 -541 -910 -177 -384 -336
-905 -388 -1270 -3 -22 -9 -65 -15 -95 -5 -30 -12 -84 -16 -120 -3 -36 -8 -73
-9 -82 -26 -138 -27 -893 -1 -1034 2 -10 7 -50 11 -89 4 -38 8 -77 10 -85 4
-20 14 -85 21 -135 13 -92 68 -340 104 -476 128 -473 318 -912 576 -1330 488
-791 1208 -1444 2049 -1858 150 -75 415 -188 488 -210 18 -5 57 -19 87 -31
203 -78 714 -200 950 -226 30 -3 66 -7 80 -10 14 -2 52 -6 85 -9 33 -3 101
-10 150 -14 92 -9 726 -7 780 2 17 3 59 8 95 11 36 4 76 8 90 10 14 2 50 7 80
11 30 4 64 8 75 10 11 2 38 6 61 10 101 15 224 40 374 77 1044 256 1970 836
2661 1668 535 643 903 1420 1058 2235 16 83 32 175 36 205 4 30 9 64 11 75 2
11 7 47 10 80 4 33 8 62 9 65 18 31 27 714 12 905 -8 109 -24 268 -31 300 -2
11 -7 43 -10 70 -4 28 -8 61 -11 75 -3 14 -7 41 -10 60 -22 136 -73 347 -129
542 -182 625 -529 1273 -952 1778 -601 716 -1387 1254 -2255 1543 -124 42
-397 119 -459 131 -14 3 -68 14 -120 25 -139 30 -328 59 -465 71 -66 7 -136
14 -155 16 -39 5 -647 14 -652 9z"/>
</g>
</svg>
